<svg width="214" height="92" viewBox="0 0 214 92" fill="none" xmlns="http://www.w3.org/2000/svg">
<path d="M87.504 76.3754H72.5133V26.2682H76.3878V45.3092H87.504C98.4777 45.3092 104.782 51.6074 104.782 60.8412C104.782 70.075 98.4777 76.3754 87.504 76.3754ZM87.504 49.1739H76.3878V72.5085H87.504C96.3266 72.5085 100.916 67.9282 100.916 60.8412C100.916 53.7542 96.3266 49.1739 87.504 49.1739Z" fill="#3E3D40"/>
<path d="M196.074 65.7082L199.314 67.8636C196.963 70.8152 193.975 73.1981 190.571 74.8341C187.168 76.4701 183.438 77.3168 179.66 77.3108C165.315 77.3108 154.27 65.6435 154.27 51.3272C154.27 37.0108 165.315 25.4168 179.66 25.4168C183.44 25.3949 187.176 26.2346 190.582 27.8717C193.988 29.5089 196.974 31.9004 199.314 34.864L196.074 36.9397C194.092 34.5079 191.588 32.551 188.747 31.2132C185.907 29.8755 182.801 29.1911 179.66 29.2103C167.395 29.2103 158.143 39.1598 158.143 51.3272C158.143 63.5678 167.395 73.4461 179.66 73.4461C182.802 73.4649 185.908 72.7793 188.749 71.44C191.59 70.1007 194.093 68.1419 196.074 65.7082Z" fill="#3E3D40"/>
<path d="M100.918 26.1583H84.8519V30.0229H100.918V26.1583Z" fill="#3E3D40"/>
<path d="M64.0514 26.1583H46.6547V30.0229H64.0514V26.1583Z" fill="#2070AE"/>
<path d="M76.3879 0H72.5154V19.1229H76.3879V0Z" fill="#2070AE"/>
<path d="M17.3967 61.4016H0V65.2663H17.3967V61.4016Z" fill="#2070AE"/>
<path d="M30.5128 35.6205H26.6404V54.7435H30.5128V35.6205Z" fill="#2070AE"/>
<path d="M57.7255 61.4016H40.3288V65.2663H57.7255V61.4016Z" fill="#2070AE"/>
<path d="M30.5128 71.6118H26.6404V90.7348H30.5128V71.6118Z" fill="#2070AE"/>
<path d="M28.5777 66.8893C30.3359 66.8893 31.7611 65.4669 31.7611 63.7122C31.7611 61.9575 30.3359 60.5351 28.5777 60.5351C26.8195 60.5351 25.3942 61.9575 25.3942 63.7122C25.3942 65.4669 26.8195 66.8893 28.5777 66.8893Z" fill="#2070AE"/>
<path d="M123.455 54.7435L132.092 31.7817L140.666 54.7435H144.737L134.1 26.2703H130.012L119.373 54.7435H123.455Z" fill="#3E3D40"/>
<path d="M146.16 58.5478H117.952L111.291 76.3753H115.38L120.615 62.3456H132.055H143.495L148.731 76.3753H152.819L146.16 58.5478Z" fill="#3E3D40"/>
<path d="M44.7239 86.1911C45.0843 86.3842 45.3835 86.6738 45.5878 87.0274C45.8131 87.43 45.9258 87.8856 45.9139 88.3466C45.928 88.8194 45.8155 89.2874 45.5878 89.7023C45.3834 90.062 45.0788 90.3548 44.7109 90.5451C44.3255 90.7395 43.8987 90.8379 43.4669 90.8318C43.0265 90.8382 42.5924 90.7266 42.21 90.5085C41.8281 90.2728 41.5268 89.9271 41.3461 89.517C41.1113 89.0039 40.9947 88.4449 41.0048 87.881V87.2344C40.9997 86.6166 41.1156 86.0037 41.3461 85.4303C41.5565 84.8888 41.9291 84.4252 42.413 84.1025C42.6368 83.9507 42.8756 83.8221 43.1257 83.7189C43.3417 83.6283 43.6181 83.5356 43.927 83.443C44.1948 83.3632 44.4064 83.2921 44.5749 83.2274C44.7464 83.1606 44.91 83.0754 45.063 82.9731L45.3329 83.568C45.1479 83.6857 44.9519 83.7854 44.7477 83.8654C44.5533 83.9409 44.3157 84.0142 44.0652 84.081C43.8146 84.1478 43.5468 84.2469 43.3568 84.3245C43.1531 84.4133 42.9585 84.5215 42.7758 84.6479C42.4396 84.8621 42.1738 85.1701 42.0112 85.5337C41.8117 85.9656 41.6925 86.4301 41.6592 86.9046C41.8704 86.5854 42.1615 86.3268 42.5037 86.1545C42.84 85.9912 43.2096 85.9078 43.5835 85.9109C43.9812 85.9076 44.3733 86.004 44.7239 86.1911ZM44.7736 89.6915C45.0958 89.319 45.2641 88.8383 45.2444 88.3466C45.2603 87.8653 45.0893 87.3966 44.7671 87.0382C44.6042 86.8653 44.4059 86.7296 44.1856 86.6403C43.9653 86.551 43.7282 86.5103 43.4907 86.5209C43.1696 86.5164 42.8533 86.5983 42.575 86.758C42.3059 86.9139 42.0866 87.1426 41.9421 87.4176C41.7883 87.7067 41.7103 88.03 41.7154 88.3573C41.7026 88.6042 41.739 88.851 41.8224 89.0837C41.9058 89.3164 42.0346 89.5303 42.2013 89.7131C42.551 90.0395 43.013 90.2194 43.4918 90.2153C43.9705 90.2113 44.4295 90.0238 44.7736 89.6915Z" fill="#010101"/>
<path d="M51.1556 86.4649C51.5518 86.9348 51.7548 87.5371 51.7236 88.1504C51.7229 88.3061 51.7121 88.4616 51.6912 88.616H47.8577C47.8878 89.0723 48.0984 89.4979 48.443 89.7993C48.7771 90.086 49.2054 90.2395 49.646 90.2304C49.9288 90.2387 50.2104 90.1888 50.4731 90.0838C50.71 89.9824 50.9249 89.8359 51.1059 89.6527L51.4861 90.1291C51.0757 90.5127 50.555 90.7581 49.9975 90.8308C49.4399 90.9035 48.8736 90.7998 48.3782 90.5343C48.0079 90.3258 47.7039 90.0172 47.5013 89.6441C47.2868 89.2417 47.1783 88.7915 47.186 88.3358C47.1807 87.8969 47.287 87.4638 47.4949 87.077C47.6984 86.6979 48.0025 86.3819 48.3739 86.1637C48.7453 85.9455 49.1697 85.8335 49.6006 85.8398C49.8897 85.8255 50.1784 85.874 50.4469 85.9819C50.7154 86.0898 50.9572 86.2546 51.1556 86.4649ZM48.4538 86.8959C48.1302 87.1971 47.923 87.6022 47.8685 88.0405H51.0735C51.0831 87.6131 50.9286 87.1982 50.6416 86.8809C50.5035 86.7412 50.3375 86.6321 50.1545 86.5604C49.9715 86.4888 49.7754 86.4562 49.579 86.4649C49.1639 86.4584 48.7617 86.6094 48.4538 86.8873V86.8959Z" fill="#010101"/>
<path d="M54.2008 90.5559C53.8336 90.3543 53.5289 90.0561 53.3197 89.6937C53.0862 89.2807 52.9698 88.812 52.9828 88.338C52.9707 87.8722 53.0872 87.4121 53.3197 87.0081C53.5305 86.6432 53.8395 86.3445 54.2117 86.1459C54.6756 85.8926 55.2073 85.7903 55.7324 85.8533C56.2574 85.9163 56.7497 86.1414 57.1403 86.4972L56.7623 86.9499C56.5857 86.7881 56.3797 86.6616 56.1554 86.577C55.922 86.4973 55.6764 86.4586 55.4297 86.4627C55.1136 86.4599 54.8022 86.5402 54.527 86.6955C54.253 86.85 54.0283 87.0786 53.879 87.3551C53.7194 87.6563 53.6391 87.993 53.6458 88.3337C53.6389 88.6791 53.7191 89.0208 53.879 89.3273C54.0238 89.6062 54.2441 89.8391 54.5147 89.9995C54.7854 90.1599 55.0956 90.2414 55.4103 90.2348C55.6806 90.2419 55.9495 90.1943 56.2008 90.0947C56.4394 89.9882 56.6584 89.8425 56.8487 89.6636L57.2159 90.1378C56.9805 90.3675 56.7034 90.5504 56.3995 90.6766C56.0692 90.8009 55.7179 90.8602 55.365 90.8512C54.9581 90.8528 54.5576 90.7512 54.2008 90.5559Z" fill="#010101"/>
<path d="M58.5592 85.9584H62.531V90.7348H61.8701V86.564H59.2179V90.7348H58.5592V85.9584Z" fill="#010101"/>
<path d="M68.4335 85.9584V90.7348H67.7856V87.8164C67.7856 87.5706 67.7856 87.3853 67.7856 87.2646C67.6258 87.4672 67.4746 87.6482 67.3299 87.8056L64.6561 90.7348H64.4185V85.9584H65.0794V88.7885C65.0794 88.9415 65.0794 89.1527 65.0557 89.4351C65.1723 89.2907 65.3516 89.0816 65.5978 88.81L68.1895 85.967L68.4335 85.9584Z" fill="#010101"/>
<path d="M69.6948 90.2046C69.8751 90.2006 70.0522 90.1559 70.2127 90.0737C70.3732 89.9916 70.5129 89.8742 70.6213 89.7304C70.8363 89.3464 70.9535 88.9156 70.9626 88.4759L71.1678 85.9584H74.2648V90.7348H73.6039V86.5748H71.7617L71.6105 88.422C71.5867 88.8633 71.4994 89.2988 71.3513 89.7153C71.2419 90.0173 71.0411 90.2779 70.7768 90.4611C70.4711 90.6482 70.1272 90.7646 69.7704 90.8016L69.6948 90.2046Z" fill="#010101"/>
<path d="M77.0228 90.5343C76.652 90.3263 76.348 90.0176 76.146 89.6441C75.9398 89.2441 75.8323 88.8007 75.8323 88.3508C75.8323 87.901 75.9398 87.4576 76.146 87.0576C76.346 86.682 76.6505 86.3722 77.0228 86.1652C77.4125 85.9481 77.853 85.838 78.2992 85.8462C78.7518 85.8364 79.1989 85.9465 79.5951 86.1652C79.9672 86.3738 80.2727 86.6832 80.4762 87.0576C80.6845 87.457 80.7932 87.9006 80.7932 88.3508C80.7932 88.8011 80.6845 89.2447 80.4762 89.6441C80.2707 90.0165 79.9656 90.3246 79.5951 90.5343C79.1989 90.753 78.7518 90.8631 78.2992 90.8533C77.853 90.8615 77.4125 90.7515 77.0228 90.5343ZM79.6145 89.7088C79.9408 89.3296 80.1202 88.8463 80.1202 88.3465C80.1202 87.8467 79.9408 87.3635 79.6145 86.9843C79.4452 86.8085 79.2404 86.6705 79.0136 86.5794C78.7869 86.4884 78.5434 86.4464 78.2992 86.4562C77.9727 86.4508 77.6509 86.5343 77.3684 86.6976C77.0925 86.8574 76.8678 87.0921 76.7204 87.3744C76.5698 87.676 76.4957 88.0097 76.5045 88.3465C76.4855 88.8491 76.6664 89.3388 77.0077 89.7088C77.1742 89.883 77.3757 90.0201 77.599 90.1111C77.8223 90.2022 78.0624 90.245 78.3035 90.2368C78.5462 90.2445 78.7877 90.2015 79.0127 90.1105C79.2378 90.0196 79.4412 89.8827 79.6102 89.7088H79.6145Z" fill="#010101"/>
<path d="M83.2126 86.564H81.6857V85.9584H85.4112V86.564H83.8735V90.7348H83.2126V86.564Z" fill="#010101"/>
<path d="M90.7242 85.9584V90.7348H90.0633V88.6268H87.4004V90.7348H86.7395V85.9584H87.4004V88.0211H90.0633V85.9584H90.7242Z" fill="#010101"/>
<path d="M95.8903 88.0707C96.0402 88.2183 96.1593 88.3941 96.2405 88.588C96.3218 88.7819 96.3636 88.99 96.3636 89.2001C96.3636 89.4103 96.3218 89.6184 96.2405 89.8123C96.1593 90.0061 96.0402 90.182 95.8903 90.3296C95.5226 90.6184 95.0615 90.7626 94.5945 90.7348H92.601V85.9584H93.2705V87.6655H94.6031C95.0673 87.6398 95.5249 87.7839 95.8903 88.0707ZM95.4303 89.892C95.6105 89.7066 95.7113 89.4584 95.7113 89.2001C95.7113 88.9418 95.6105 88.6936 95.4303 88.5082C95.1925 88.335 94.9011 88.251 94.6074 88.2711H93.2705V90.1291H94.6031C94.8982 90.1502 95.1913 90.0662 95.4303 89.892ZM97.9615 85.9584V90.7348H97.3136V85.9584H97.9615Z" fill="#010101"/>
<path d="M103.506 86.4649C103.902 86.9348 104.105 87.5371 104.074 88.1504C104.073 88.3061 104.062 88.4616 104.041 88.616H100.208C100.238 89.0723 100.448 89.4979 100.793 89.7993C101.126 90.086 101.554 90.2396 101.994 90.2304C102.277 90.2387 102.56 90.1888 102.823 90.0838C103.06 89.9824 103.275 89.8359 103.456 89.6527L103.836 90.1291C103.426 90.5127 102.905 90.7581 102.347 90.8308C101.79 90.9035 101.223 90.7998 100.728 90.5343C100.358 90.3258 100.054 90.0172 99.8513 89.6441C99.6367 89.2417 99.5282 88.7915 99.5359 88.3358C99.5307 87.8969 99.6369 87.4638 99.8448 87.077C100.048 86.6979 100.352 86.3819 100.724 86.1637C101.095 85.9455 101.52 85.8335 101.951 85.8398C102.24 85.8255 102.528 85.874 102.797 85.9819C103.065 86.0898 103.307 86.2546 103.506 86.4649ZM100.804 86.8959C100.48 87.1971 100.273 87.6022 100.218 88.0405H103.421C103.43 87.6133 103.275 87.1988 102.989 86.8809C102.851 86.7412 102.685 86.6321 102.502 86.5604C102.319 86.4888 102.123 86.4562 101.927 86.4649C101.512 86.4585 101.111 86.6095 100.804 86.8873V86.8959Z" fill="#010101"/>
<path d="M110.89 86.3312C111.058 86.4863 111.19 86.6768 111.275 86.889C111.36 87.1011 111.397 87.3296 111.382 87.5577V90.7348H110.894L110.775 89.8726C110.598 90.1648 110.346 90.405 110.045 90.5688C109.713 90.7437 109.341 90.8312 108.965 90.8232C108.562 90.844 108.165 90.7175 107.849 90.4675C107.712 90.346 107.604 90.1954 107.533 90.0268C107.462 89.8582 107.43 89.6759 107.438 89.4932C107.431 89.2478 107.489 89.0048 107.605 88.7882C107.721 88.5716 107.891 88.3889 108.099 88.2582C108.616 87.9363 109.219 87.7792 109.827 87.8077C110.12 87.8045 110.413 87.8189 110.704 87.8508V87.5275C110.714 87.3855 110.689 87.2433 110.633 87.1128C110.576 86.9822 110.488 86.8672 110.378 86.7774C110.119 86.5945 109.806 86.5048 109.49 86.5231C108.941 86.5396 108.402 86.6757 107.911 86.9218L107.682 86.3593C108.266 86.0733 108.905 85.9188 109.555 85.9066C110.037 85.8791 110.512 86.0303 110.89 86.3312ZM110.242 89.7131C110.548 89.3449 110.711 88.8789 110.702 88.4004C110.443 88.3704 110.183 88.3561 109.922 88.3573C109.462 88.3314 109.004 88.4305 108.596 88.644C108.451 88.722 108.331 88.8382 108.248 88.98C108.164 89.1218 108.122 89.2838 108.125 89.448C108.12 89.554 108.14 89.6597 108.183 89.7567C108.226 89.8536 108.291 89.9391 108.374 90.0062C108.575 90.1497 108.82 90.2197 109.067 90.2045C109.288 90.2151 109.509 90.1764 109.714 90.0915C109.919 90.0065 110.102 89.8773 110.25 89.7131H110.242Z" fill="#010101"/>
<path d="M116.773 88.6914C116.936 88.9012 117.02 89.1613 117.01 89.4264C117.019 89.6092 116.984 89.7914 116.909 89.9584C116.834 90.1253 116.721 90.2724 116.578 90.3878C116.256 90.6314 115.857 90.7542 115.453 90.7348H113.22V85.9584H115.278C115.674 85.9368 116.065 86.0593 116.378 86.3032C116.51 86.416 116.615 86.5571 116.686 86.716C116.756 86.875 116.79 87.0478 116.784 87.2214C116.797 87.4448 116.741 87.6669 116.623 87.857C116.504 88.047 116.33 88.1955 116.123 88.2819C116.376 88.3485 116.603 88.4915 116.773 88.6914ZM113.881 86.5533V88.0103H115.267C115.384 88.0186 115.502 88.0039 115.613 87.9669C115.724 87.9299 115.827 87.8714 115.915 87.7948C115.987 87.7268 116.042 87.6447 116.08 87.5537C116.117 87.4627 116.135 87.3649 116.131 87.2667C116.134 87.1698 116.116 87.0735 116.079 86.984C116.042 86.8945 115.986 86.8138 115.915 86.7473C115.734 86.5974 115.502 86.5239 115.267 86.5425L113.881 86.5533ZM116.123 89.9287C116.268 89.78 116.35 89.5804 116.35 89.3726C116.35 89.1647 116.268 88.9651 116.123 88.8165C115.934 88.662 115.694 88.585 115.451 88.6009H113.881V90.1356H115.451C115.693 90.1539 115.933 90.08 116.123 89.9287Z" fill="#010101"/>
<path d="M122.615 85.9584V90.7348H121.954V87.8164C121.954 87.5706 121.954 87.3853 121.965 87.2646C121.807 87.4672 121.654 87.6482 121.509 87.8056L118.835 90.7348H118.598V85.9584H119.259V88.7885C119.259 88.9415 119.259 89.1527 119.237 89.4351C119.352 89.2907 119.531 89.0816 119.777 88.81L122.369 85.967L122.615 85.9584Z" fill="#010101"/>
<path d="M127.61 86.3312C127.779 86.4862 127.911 86.6766 127.996 86.8888C128.082 87.1009 128.119 87.3294 128.105 87.5577V90.7348H127.61L127.492 89.8726C127.314 90.1648 127.062 90.405 126.762 90.5688C126.429 90.7439 126.058 90.8314 125.682 90.8231C125.279 90.8446 124.881 90.7181 124.565 90.4675C124.428 90.3464 124.319 90.196 124.248 90.0273C124.176 89.8587 124.144 89.6761 124.153 89.4932C124.146 89.2478 124.203 89.0048 124.319 88.7882C124.435 88.5716 124.605 88.3889 124.814 88.2582C125.33 87.9366 125.933 87.7795 126.541 87.8077C126.834 87.8045 127.127 87.8189 127.418 87.8508V87.5275C127.428 87.3855 127.404 87.2433 127.347 87.1128C127.29 86.9822 127.203 86.8672 127.092 86.7774C126.834 86.5942 126.521 86.5045 126.204 86.5231C125.655 86.5396 125.116 86.6757 124.626 86.9218L124.399 86.3593C124.982 86.0728 125.621 85.9183 126.271 85.9066C126.755 85.8766 127.233 86.028 127.61 86.3312ZM126.962 89.7131C127.269 89.3449 127.432 88.8789 127.422 88.4004C127.164 88.3705 126.903 88.3561 126.643 88.3573C126.183 88.3317 125.725 88.4307 125.317 88.644C125.172 88.7216 125.051 88.8378 124.968 88.9797C124.884 89.1216 124.842 89.2837 124.846 89.448C124.841 89.554 124.86 89.6597 124.903 89.7567C124.947 89.8536 125.012 89.9391 125.094 90.0062C125.296 90.1497 125.541 90.2197 125.788 90.2045C126.008 90.2138 126.227 90.1745 126.43 90.0896C126.633 90.0046 126.815 89.8761 126.962 89.7131Z" fill="#010101"/>
<path d="M134.578 90.1291V91.9979H133.93V90.7348H129.923V85.9584H130.584V90.1291H133.226V85.9584H133.874V90.1291H134.578Z" fill="#010101"/>
<path d="M139.951 85.9584V90.7348H139.29V87.8164C139.29 87.5706 139.29 87.3853 139.29 87.2646C139.133 87.4672 138.981 87.6482 138.837 87.8056L136.163 90.7348H135.925V85.9584H136.573V88.7885C136.573 88.9415 136.573 89.1527 136.552 89.4351C136.668 89.2907 136.848 89.0816 137.094 88.81L139.686 85.967L139.951 85.9584Z" fill="#010101"/>
<path d="M142.729 90.5343C142.358 90.3258 142.053 90.0173 141.85 89.6441C141.645 89.2437 141.538 88.8005 141.538 88.3509C141.538 87.9013 141.645 87.4581 141.85 87.0576C142.05 86.6792 142.355 86.3664 142.729 86.1566C143.123 85.9472 143.563 85.8376 144.01 85.8376C144.457 85.8376 144.898 85.9472 145.292 86.1566C145.665 86.3652 145.971 86.6745 146.176 87.049C146.384 87.4484 146.492 87.892 146.492 88.3423C146.492 88.7925 146.384 89.2361 146.176 89.6355C145.969 90.008 145.663 90.3162 145.292 90.5257C144.898 90.7352 144.457 90.8447 144.01 90.8447C143.563 90.8447 143.123 90.7352 142.729 90.5257V90.5343ZM145.32 89.7088C145.647 89.3296 145.826 88.8464 145.826 88.3466C145.826 87.8467 145.647 87.3635 145.32 86.9843C145.151 86.8085 144.946 86.6705 144.719 86.5795C144.493 86.4884 144.249 86.4464 144.005 86.4563C143.678 86.4508 143.357 86.5343 143.074 86.6977C142.798 86.8574 142.574 87.0921 142.426 87.3745C142.272 87.675 142.194 88.0089 142.199 88.3466C142.189 88.5955 142.229 88.8439 142.315 89.0777C142.401 89.3114 142.533 89.5259 142.703 89.7088C142.869 89.883 143.071 90.0202 143.294 90.1112C143.517 90.2022 143.757 90.245 143.999 90.2369C144.244 90.2469 144.488 90.2051 144.716 90.114C144.944 90.023 145.15 89.8849 145.32 89.7088Z" fill="#010101"/>
<path d="M152.069 85.9584V90.7348H151.409V88.6268H148.746V90.7348H148.085V85.9584H148.746V88.0211H151.409V85.9584H152.069Z" fill="#010101"/>
<path d="M157.935 85.9584V90.7348H157.274V88.6268H154.607V90.7348H153.959V85.9584H154.607V88.0211H157.27V85.9584H157.935Z" fill="#010101"/>
<path d="M163.101 88.0707C163.251 88.2183 163.37 88.3941 163.452 88.588C163.533 88.7819 163.575 88.99 163.575 89.2001C163.575 89.4103 163.533 89.6184 163.452 89.8123C163.37 90.0062 163.251 90.182 163.101 90.3296C162.734 90.618 162.273 90.7622 161.806 90.7348H159.812V85.9584H160.473V87.6655H161.806C162.273 87.6381 162.734 87.7822 163.101 88.0707ZM162.633 89.892C162.813 89.7066 162.914 89.4585 162.914 89.2001C162.914 88.9418 162.813 88.6936 162.633 88.5082C162.395 88.335 162.104 88.251 161.81 88.2711H160.477V90.1291H161.81C162.104 90.1492 162.395 90.0653 162.633 89.892ZM165.166 85.9584V90.7348H164.505V85.9584H165.166Z" fill="#010101"/>
<path d="M170.717 86.4648C171.113 86.9347 171.316 87.5371 171.285 88.1504C171.284 88.3061 171.273 88.4616 171.252 88.616H167.419C167.449 89.0722 167.659 89.4979 168.004 89.7993C168.337 90.0857 168.765 90.2392 169.205 90.2304C169.488 90.2389 169.771 90.189 170.034 90.0838C170.271 89.9823 170.486 89.8359 170.667 89.6527L171.045 90.1291C170.635 90.5125 170.115 90.7579 169.557 90.8306C169 90.9033 168.434 90.7996 167.939 90.5343C167.568 90.3263 167.264 90.0176 167.062 89.6441C166.849 89.2415 166.741 88.7913 166.749 88.3358C166.743 87.897 166.848 87.4638 167.056 87.077C167.259 86.6979 167.564 86.3819 167.935 86.1637C168.306 85.9455 168.731 85.8335 169.162 85.8398C169.451 85.8253 169.74 85.8737 170.008 85.9817C170.277 86.0896 170.518 86.2544 170.717 86.4648ZM168.015 86.8959C167.69 87.1965 167.483 87.602 167.43 88.0405H170.635C170.643 87.6133 170.489 87.1988 170.203 86.8808C170.065 86.7412 169.899 86.632 169.716 86.5604C169.533 86.4887 169.336 86.4562 169.14 86.4648C168.725 86.4579 168.323 86.609 168.015 86.8873V86.8959Z" fill="#010101"/>
<path d="M175.9 90.5559C175.533 90.3537 175.229 90.0556 175.019 89.6937C174.786 89.2805 174.67 88.8118 174.684 88.3379C174.671 87.8724 174.787 87.4123 175.019 87.0081C175.231 86.6435 175.541 86.345 175.913 86.1459C176.377 85.8928 176.908 85.7906 177.433 85.8536C177.957 85.9166 178.449 86.1416 178.839 86.4972L178.461 86.9499C178.285 86.7881 178.079 86.6615 177.855 86.577C177.621 86.4971 177.376 86.4584 177.129 86.4627C176.813 86.4599 176.501 86.5402 176.226 86.6955C175.953 86.8505 175.728 87.079 175.578 87.3551C175.419 87.6562 175.338 87.993 175.345 88.3336C175.338 88.6791 175.418 89.0208 175.578 89.3273C175.723 89.6065 175.944 89.8396 176.215 90C176.486 90.1604 176.797 90.2417 177.112 90.2347C177.381 90.2416 177.649 90.194 177.9 90.0946C178.139 89.9886 178.358 89.8429 178.548 89.6635L178.917 90.1377C178.681 90.3671 178.403 90.5499 178.099 90.6766C177.768 90.8011 177.417 90.8604 177.064 90.8512C176.657 90.8525 176.257 90.7509 175.9 90.5559Z" fill="#010101"/>
<path d="M184.275 85.9584V90.7348H183.615V87.8164C183.615 87.5706 183.615 87.3853 183.615 87.2646C183.455 87.4672 183.304 87.6482 183.161 87.8056L180.485 90.7348H180.248V85.9584H180.908V88.7885C180.908 88.9415 180.908 89.1527 180.887 89.4351C181.001 89.2907 181.183 89.0816 181.427 88.81L184.019 85.967L184.275 85.9584Z" fill="#010101"/>
<path d="M187.083 90.5559C186.715 90.3544 186.41 90.0562 186.2 89.6937C185.968 89.2801 185.852 88.8117 185.865 88.3379C185.853 87.8725 185.969 87.4127 186.2 87.008C186.412 86.6435 186.722 86.345 187.094 86.1459C187.422 85.9766 187.782 85.8771 188.151 85.8537C188.52 85.8304 188.889 85.8836 189.236 86.0101C189.526 86.1237 189.792 86.2887 190.023 86.4972L189.645 86.9498C189.467 86.789 189.261 86.6625 189.038 86.5769C188.804 86.4972 188.559 86.4586 188.312 86.4627C187.995 86.4599 187.683 86.5402 187.407 86.6955C187.137 86.8512 186.916 87.0798 186.77 87.3551C186.61 87.6562 186.53 87.993 186.537 88.3336C186.53 88.6791 186.61 89.0208 186.77 89.3273C186.914 89.6053 187.133 89.8375 187.403 89.9976C187.675 90.1577 187.986 90.2397 188.301 90.2347C188.571 90.2414 188.84 90.1938 189.092 90.0946C189.33 89.9875 189.549 89.8418 189.74 89.6635L190.107 90.1377C189.871 90.3677 189.593 90.5506 189.288 90.6766C188.959 90.8011 188.608 90.8604 188.256 90.8512C187.846 90.8542 187.442 90.7525 187.083 90.5559Z" fill="#010101"/>
<path d="M192.597 86.564H191.07V85.9584H194.796V86.564H193.266V90.7348H192.606L192.597 86.564Z" fill="#010101"/>
<path d="M199.659 86.4649C200.056 86.9343 200.26 87.537 200.227 88.1504C200.227 88.3062 200.216 88.4617 200.195 88.616H196.364C196.393 89.072 196.603 89.4976 196.947 89.7993C197.281 90.0857 197.709 90.2391 198.15 90.2304C198.433 90.2388 198.714 90.1889 198.977 90.0838C199.214 89.9819 199.43 89.8356 199.612 89.6528L199.99 90.1291C199.579 90.5127 199.059 90.7582 198.501 90.8309C197.944 90.9036 197.377 90.7999 196.882 90.5343C196.512 90.3258 196.208 90.0173 196.005 89.6441C195.791 89.2416 195.683 88.7914 195.692 88.3358C195.686 87.8968 195.792 87.4635 196.001 87.077C196.204 86.6975 196.508 86.3811 196.879 86.1628C197.251 85.9445 197.675 85.8328 198.106 85.8398C198.395 85.8254 198.684 85.8738 198.952 85.9818C199.22 86.0897 199.461 86.2546 199.659 86.4649ZM196.958 86.896C196.634 87.1968 196.427 87.6022 196.374 88.0405H199.577C199.586 87.6133 199.431 87.1988 199.145 86.8809C199.008 86.7414 198.842 86.6324 198.659 86.5607C198.477 86.489 198.281 86.4564 198.085 86.4649C197.669 86.4581 197.266 86.6091 196.958 86.8874V86.896Z" fill="#010101"/>
<path d="M206.968 90.7348H206.32L206.037 87.9155C206.024 87.7991 206.009 87.6008 205.994 87.3206L205.562 87.9155L204.337 89.5234H204.175L203.007 87.9888C202.776 87.687 202.605 87.4607 202.497 87.3077C202.482 87.5965 202.469 87.8207 202.454 87.9802L202.193 90.7348H201.545L201.977 85.9584H202.193L203.959 88.228C204.139 88.4651 204.24 88.6009 204.262 88.6376C204.283 88.6009 204.385 88.4651 204.564 88.228L206.318 85.9584H206.534L206.968 90.7348Z" fill="#010101"/>
<path d="M211.937 88.0707C212.087 88.2187 212.205 88.3947 212.286 88.5885C212.366 88.7824 212.408 88.9902 212.408 89.2001C212.408 89.4101 212.366 89.6179 212.286 89.8117C212.205 90.0056 212.087 90.1816 211.937 90.3296C211.569 90.6175 211.109 90.7616 210.642 90.7348H208.648V85.9584H209.309V87.6655H210.642C211.109 87.6387 211.569 87.7828 211.937 88.0707ZM211.467 89.892C211.647 89.7066 211.748 89.4585 211.748 89.2001C211.748 88.9418 211.647 88.6936 211.467 88.5082C211.229 88.335 210.937 88.251 210.644 88.2711H209.311V90.1291H210.644C210.937 90.1492 211.229 90.0653 211.467 89.892ZM214 85.9584V90.7348H213.339V85.9584H214Z" fill="#010101"/>
</svg>
