<svg width="32" height="32" viewBox="0 0 32 32" fill="none" xmlns="http://www.w3.org/2000/svg"><circle cx="16" cy="16" r="15" stroke="#494949" stroke-width="2"/><path fill-rule="evenodd" clip-rule="evenodd" d="M9.802 9h2.805c.441 0 .802.36.802.802 0 1.002.16 1.963.457 2.861a.804.804 0 01-.2.818l-1.764 1.763a12.143 12.143 0 005.282 5.283l1.764-1.764a.821.821 0 01.817-.192 9.144 9.144 0 002.862.457c.441 0 .802.36.802.802v2.797a.804.804 0 01-.802.802C15.1 23.429 9 17.329 9 9.802 9 9.36 9.36 9 9.802 9zm2.036 1.603c.048.714.168 1.411.36 2.077l-.961.961a11.88 11.88 0 01-.61-3.038h1.21zm7.903 9.635a10.22 10.22 0 002.085.36v1.195a12.362 12.362 0 01-3.047-.6l.962-.955z" fill="#494949"/></svg>