<svg width="32" height="32" viewBox="0 0 32 32" fill="none" xmlns="http://www.w3.org/2000/svg"><circle cx="16" cy="16" r="15" stroke="#FF8A00" stroke-width="2"/><g clip-path="url(#clip0)" fill="#FF8A00"><path d="M22.591 11.979a.374.374 0 00-.525-.076l-6.049 4.515a.125.125 0 01-.15 0l-5.93-4.535a.374.374 0 10-.455.596l4.663 3.566-4.611 3.475a.376.376 0 10.451.605l4.779-3.607.647.5a.875.875 0 001.054.007l.68-.507 4.835 3.607a.375.375 0 00.449-.601l-4.658-3.48 4.744-3.544a.375.375 0 00.076-.521z"/><path d="M22.125 10.375H9.875A1.875 1.875 0 008 12.25v7.5a1.875 1.875 0 001.875 1.875h12.25A1.875 1.875 0 0024 19.75v-7.5a1.875 1.875 0 00-1.875-1.875zm1.125 9.375a1.125 1.125 0 01-1.125 1.125H9.875A1.125 1.125 0 018.75 19.75v-7.5a1.125 1.125 0 011.125-1.125h12.25a1.125 1.125 0 011.125 1.125v7.5z"/></g><defs><clipPath id="clip0"><path fill="#fff" transform="translate(8 8)" d="M0 0h16v16H0z"/></clipPath></defs></svg>