<svg width="24" height="24" viewBox="0 0 24 24" fill="none" xmlns="http://www.w3.org/2000/svg">
<path fill-rule="evenodd" clip-rule="evenodd" d="M11.5933 21.588C11.5933 21.4296 11.8557 20.998 11.9953 20.8663L12.0368 20.9126C12.042 20.919 12.0506 20.9289 12.0561 20.936C12.0615 20.9429 12.0686 20.9524 12.0739 20.9597L12.2275 21.1989C12.3011 21.3168 12.394 21.4208 12.394 21.5881L12.3804 23.1843L11.6011 23.1837L11.5933 21.5881L11.5933 21.588ZM5.98581 14.9854C5.90069 15.1872 5.61202 15.376 5.4605 15.5396C5.25037 15.7665 5.27118 16.1166 5.56012 16.2236C5.89496 16.3475 6.06728 16.0523 6.22335 15.9084C6.41133 15.7352 6.56157 15.5894 6.75562 15.4171C7.52058 14.7378 7.30421 14.955 8.19906 14.7718C8.4777 14.7148 8.75917 14.6409 9.01327 14.5625C9.27092 14.483 9.5735 14.3479 9.80284 14.2952C9.64088 14.6055 8.67993 15.8572 8.37599 16.2863C8.14199 16.6166 7.90285 16.9405 7.66363 17.2653C7.57923 17.3798 7.37265 17.618 7.35522 17.7829C7.33001 18.0212 7.5149 18.2173 7.74126 18.2198C8.01491 18.2227 8.1188 17.9937 8.23479 17.8372L10.343 14.9469C10.4415 14.816 10.5758 14.5981 10.6969 14.4784L11.2633 14.7101C11.2017 15.5194 10.8706 16.6536 10.6066 17.3673C10.4564 17.7737 10.3025 18.1602 10.1151 18.5302C10.0466 18.6654 9.87658 18.9679 9.86971 19.114C9.85778 19.3686 10.0289 19.53 10.2622 19.5305C10.5349 19.5312 10.5944 19.3635 10.6997 19.158C11.182 18.2161 11.5521 17.1851 11.8114 16.1371C11.8634 15.927 12.0412 14.8859 12.0929 14.7945L12.6942 14.7208C12.7885 17.024 12.2872 18.8408 11.1674 20.645C10.751 21.316 10.2037 22.0834 9.63718 22.4574C8.96846 22.8989 7.56988 22.3369 7.0282 22.0654C5.72407 21.4116 4.15492 20.2281 3.31056 19.09C2.59188 18.1213 2.55906 17.6377 3.0698 16.7328C3.34717 16.2414 4.19313 15.1082 4.54933 14.9053L5.98581 14.9854ZM13.9641 14.0027C13.9962 13.9427 14.2993 13.5782 14.359 13.5328C15.5426 14.0201 16.6692 14.9362 17.5855 15.7357C17.7093 15.8437 17.9303 16.1027 18.045 16.1808C18.2716 16.3352 18.578 16.2248 18.6484 15.9961C18.7616 15.629 18.2823 15.2889 17.9046 14.9467C16.8094 13.9545 15.9793 13.5207 14.6926 12.782L14.7903 12.1955C15.5723 12.2457 16.9466 12.9642 17.4956 13.311C17.9111 13.5735 18.2326 13.8156 18.5953 14.099C19.1348 14.5205 19.2434 14.7138 19.5772 15.0061C20.0815 15.4475 20.9032 16.5959 21.1533 17.2099C21.5554 18.1973 20.7267 19.0232 20.1598 19.7114C19.7493 20.2098 18.72 20.9787 18.0547 21.4234C17.349 21.8952 15.5656 22.8908 14.5548 22.5709C14.1001 22.427 13.4274 21.543 13.1459 21.1467C13.0258 20.9778 12.4546 20.1205 12.4707 19.9436C12.4751 19.8954 12.9812 18.6506 13.0205 18.6035C13.1681 18.9309 13.4377 19.8199 13.963 19.4635C14.3622 19.1927 13.8326 18.4685 13.6828 18.1346C13.5871 17.9214 13.486 17.658 13.4031 17.4284C13.3094 17.1688 13.4228 16.8452 13.4559 16.557C13.5514 15.7245 13.5186 15.6737 13.5047 14.9526L13.5317 14.7894C14.028 15.4618 14.4671 16.0888 14.9602 16.7439C15.1049 16.9362 15.9003 18.0995 16.0472 18.1778C16.2915 18.3078 16.5432 18.175 16.6145 17.9828C16.7162 17.7092 16.5301 17.5466 16.4101 17.3804C16.2933 17.2185 16.1831 17.0695 16.0621 16.9016L13.9641 14.0027L13.9641 14.0027ZM11.7003 10.028C12.8711 9.817 13.7911 10.709 13.9605 11.6533C14.1751 12.8497 13.2997 13.8173 12.306 13.9631C10.1239 14.2834 9.11366 11.4327 10.9508 10.289C11.1781 10.1475 11.3974 10.0826 11.7003 10.028H11.7003ZM13.074 9.40427C13.1642 9.16937 13.6621 8.5455 13.8344 8.33071C15.1378 6.7066 17.4902 5.28846 19.5879 4.95117C20.337 4.83074 20.5457 5.04549 20.9476 5.38536C22.2013 6.44588 23.5339 10.3355 23.1168 12.2C22.9833 12.7966 22.7897 12.998 22.3063 13.247C21.7097 13.5543 20.9613 13.8034 20.2855 13.937C19.9383 14.0056 19.8194 14.0977 19.6054 13.9175L18.6186 13.0987C18.7773 12.9806 19.0957 13.0476 19.4411 12.9383C19.6782 12.8632 19.8343 12.5851 19.6592 12.3327C19.4619 12.0481 18.6027 12.261 18.0082 12.3103C17.5823 12.3457 17.4912 12.3835 17.1506 12.1965C16.5336 11.8576 15.1931 11.462 15.1179 11.4086L17.4244 10.6577C17.819 10.5338 18.1959 10.4062 18.5866 10.2822C18.7726 10.2232 19.0292 10.1647 19.1472 10.0555C19.3176 9.89785 19.2986 9.64349 19.1524 9.49417C18.9045 9.24107 18.3508 9.51627 18.0073 9.62949L14.5165 10.7462C14.4558 10.6816 14.218 10.3044 14.1911 10.2296C14.299 10.0824 14.5074 9.89602 14.6516 9.77439C15.7571 8.84156 15.8652 8.67351 17.2679 7.86736C17.5259 7.7191 18.3851 7.39893 17.8505 6.94268C17.5667 6.70042 17.0361 7.08548 16.6102 7.32635C16.2079 7.55382 15.8557 7.79363 15.511 8.03681C14.9686 8.41936 14.4956 8.80981 14.0264 9.26805C13.8972 9.39427 13.7174 9.60529 13.5693 9.68378L13.074 9.40422L13.074 9.40427ZM9.61076 13.5109C9.1776 13.637 8.80134 13.8129 8.30376 13.9324C6.79292 14.2954 5.1173 14.2355 3.63932 13.9255C2.89253 13.769 1.60811 13.3321 1.19145 12.9117C0.0236939 11.7336 1.57054 6.59672 3.08437 5.34792C3.51611 4.99175 3.6182 4.86648 4.35487 4.96475C5.04358 5.05663 5.78103 5.25773 6.37603 5.53998C6.51668 5.6067 6.86067 5.72633 6.92656 5.8507C6.94506 5.8856 7.26128 7.13386 7.27794 7.22985C6.98888 7.16406 6.74204 6.93056 6.50259 6.86516C6.17244 6.77498 5.91971 7.02323 5.99379 7.34054C6.05118 7.58629 6.33941 7.66672 6.58894 7.80028C7.92344 8.51456 7.68242 8.38948 8.24687 9.37024C8.48094 9.77691 9.09444 10.572 9.12604 10.6398L6.75187 9.88288C6.48151 9.79689 5.21983 9.31526 4.97632 9.40011C4.75107 9.47858 4.43474 9.97627 5.16086 10.2039L9.22887 11.531L9.18762 12.1424C8.39634 12.3231 7.31668 12.363 6.47867 12.3383C6.06493 12.3261 4.64878 12.1536 4.53739 12.1859C4.37961 12.2316 4.23453 12.3982 4.26437 12.6227C4.31712 13.0196 4.90412 13.015 5.30279 13.0615C6.98708 13.2578 7.74727 13.0993 9.3698 12.9338C9.43708 13.1512 9.5578 13.3142 9.61076 13.5109ZM9.82638 10.1834C9.58997 9.86339 9.34684 9.55192 9.0993 9.18981C8.88153 8.87124 8.67068 8.46695 8.49394 8.1002C7.7777 6.61394 7.24139 3.93243 7.66942 2.37076C7.8172 1.83155 8.02073 1.70849 8.45275 1.46639C10.1297 0.526646 14.057 0.600113 15.588 1.49686C16.0297 1.75555 16.2181 1.89438 16.3428 2.46406C16.453 2.96786 16.4744 3.52805 16.4551 4.05909C16.4453 4.33112 16.4221 4.60483 16.3906 4.85884C16.3376 5.28579 16.4278 5.22737 16.1082 5.41169L15.0679 6.0606C15.0907 5.81793 15.2102 5.36868 15.1856 5.16259C15.1504 4.86718 14.7895 4.70422 14.5436 4.91165C14.3772 5.05207 14.2325 6.09655 14.1167 6.53923C13.9967 6.9974 14.0258 6.9244 13.7542 7.18928C13.5991 7.34051 13.4052 7.53705 13.2601 7.7179L12.3962 8.85183L12.3949 5.08075C12.3963 4.71306 12.296 4.24767 11.8311 4.44502C11.5082 4.58208 11.5929 5.09664 11.5929 5.47396C11.593 6.33911 11.645 8.66887 11.5837 9.22505L10.9617 9.37993L10.4424 8.23844C10.2855 7.8459 10.1407 7.45213 10.0074 7.0218C9.88227 6.61794 9.77352 6.15398 9.67906 5.71097C9.63758 5.5165 9.61345 5.16864 9.53915 5.01667C9.46144 4.85774 9.20872 4.73139 8.9846 4.865C8.62488 5.07944 8.88094 5.7986 8.96114 6.17168C9.14704 7.03667 9.42053 7.88763 9.76153 8.68353C9.86229 8.91871 10.2402 9.63834 10.2623 9.79721C10.1716 9.89115 9.88952 10.1527 9.8264 10.1833L9.82638 10.1834ZM17.2096 4.83412C17.2004 4.44525 17.26 4.01307 17.2548 3.58749C17.2398 2.3433 17.0929 1.5197 16.1462 0.899433C14.3108 -0.303129 9.63804 -0.301266 7.82006 0.913834C7.26057 1.28779 6.99203 1.60005 6.83258 2.44376C6.64003 3.46278 6.7892 3.99595 6.77909 4.83259C6.57176 4.79672 6.06948 4.56022 5.7944 4.46764C4.61355 4.07017 3.48231 3.88308 2.62091 4.68989C2.11363 5.16501 1.83793 5.51151 1.43191 6.21525C0.561075 7.72458 -0.396362 10.8552 0.170258 12.6692C0.312484 13.1246 0.411377 13.2645 0.693575 13.5268C1.29474 14.0857 2.71376 14.5847 3.54602 14.7087C3.4548 14.9945 1.62857 16.7037 1.95237 18.0909C2.16403 18.9977 2.78309 19.8229 3.40208 20.4143C4.4884 21.4521 5.66842 22.332 7.069 22.9626C8.04392 23.4016 9.14349 23.6521 10.1155 23.0937C10.4572 22.8974 10.6392 22.6277 10.7814 22.5362C10.8111 22.8713 10.7146 23.5464 10.8554 23.7875C11.0261 24.0798 11.613 23.9855 11.9953 23.9855C13.3273 23.9855 13.2094 24.0786 13.1966 22.5422C13.3792 22.6503 13.4943 22.867 13.9248 23.1222C14.8444 23.6672 16.0225 23.3628 16.92 22.9611C18.2176 22.3803 20.2763 20.9581 21.2052 19.7327C22.2907 18.3007 22.3077 17.5288 21.5092 16.1816C21.0447 15.3979 20.7756 15.2327 20.4493 14.7494C20.4795 14.7302 20.4602 14.7358 20.5372 14.7041C20.5489 14.6992 20.5857 14.6862 20.5984 14.6822C20.6263 14.6734 20.686 14.6612 20.7251 14.6526C21.4873 14.4851 22.8404 14.0075 23.3269 13.5172C24.5402 12.294 23.8358 9.45126 23.3577 8.09412C22.828 6.5905 22.3094 5.53017 21.3495 4.67096C20.7986 4.17781 20.1857 4.00505 19.2303 4.20099C18.1964 4.41304 17.4572 4.78529 17.2096 4.83413V4.83412Z" fill="white"/>
</svg>
