<svg width="170" height="170" viewBox="0 0 170 170" fill="none" xmlns="http://www.w3.org/2000/svg">
<rect x="85" y="0.464466" width="119.551" height="119.551" rx="6.5" transform="rotate(45 85 0.464466)" stroke="#E13A8A" stroke-width="5"/>
<g clip-path="url(#clip0_203_864)">
<path d="M51 70.825C51.0093 78.1125 55.7804 84.5604 62.8234 86.7974C63.1542 86.9051 63.4234 87.1454 63.5607 87.4602L68.0477 97.782L68.0523 97.7682L68.057 97.782L72.5449 87.4602C72.6832 87.1454 72.9514 86.9042 73.2822 86.7974C80.3243 84.5604 85.0972 78.1134 85.1075 70.825C85.1075 61.5343 77.4654 54.0351 68.0523 54.0323C58.6402 54.0351 51 61.5343 51 70.825ZM75.7495 60.0411C76.4477 60.0549 77.1477 60.1461 77.8411 60.3292C78.2626 60.4397 78.5925 60.7647 78.7047 61.1799C78.8879 61.8556 78.9729 62.5396 78.9879 63.2209C82.8523 68.6091 82.0953 76.0503 77.1224 80.5502C72.0159 85.1707 64.1421 85.1845 59.0206 80.5769C54.0234 76.0825 53.2439 68.6248 57.1196 63.2218C57.1336 62.5396 57.2196 61.8538 57.4028 61.178C57.515 60.7629 57.843 60.4379 58.2645 60.3274C58.9514 60.1451 59.6486 60.0595 60.3421 60.0411C62.6785 58.4208 65.4093 57.6162 68.1393 57.6347C70.8093 57.6531 73.4692 58.4614 75.7505 60.0402L75.7495 60.0411ZM68.1262 60.0273C66.7477 60.0181 65.3682 60.2731 64.0626 60.7776C65.0327 61.2011 65.9355 61.7884 66.7084 62.5516C67.2355 63.0726 67.6832 63.6545 68.0523 64.274C68.4224 63.6545 68.8682 63.0726 69.3963 62.5516C70.1701 61.7884 71.0738 61.1983 72.0449 60.7748C70.786 60.2897 69.4579 60.0365 68.1262 60.0273ZM71.115 64.2547C69.829 65.5242 69.0533 67.3912 69.3308 69.5629C71.5009 69.8805 73.4262 69.0768 74.7131 67.8073C75.9991 66.5378 76.7944 64.7104 76.5028 62.4963C76.2271 62.4558 75.9561 62.4374 75.6916 62.4328C73.8355 62.3969 72.2421 63.1426 71.1159 64.2538L71.115 64.2547ZM59.6065 62.5009C59.3159 64.587 60.1 66.5378 61.386 67.8073C62.6729 69.0777 64.6252 69.8694 66.7701 69.5675C67.0673 67.4289 66.2766 65.5242 64.9907 64.2547C63.8645 63.1435 62.2607 62.4024 60.4131 62.4383C60.1495 62.4429 59.8794 62.465 59.6065 62.5009ZM78.2561 66.8701C77.8252 67.8377 77.2215 68.7362 76.4402 69.5067C74.5421 71.3792 71.8972 72.2611 69.2738 71.9629V74.4964C71.9458 74.7155 74.5654 75.6535 76.814 77.3162C79.1206 74.303 79.6449 70.3343 78.2561 66.8701ZM59.285 77.3208C61.5336 75.6582 64.1561 74.7118 66.8346 74.4918V71.9629C64.2112 72.2611 61.5654 71.3801 59.6682 69.5067C58.8879 68.7371 58.285 67.8386 57.8551 66.872C56.4636 70.3389 56.9813 74.3086 59.285 77.3208ZM103.381 68.4268C97.3701 68.4278 92.4224 73.2876 92.4224 79.3221C92.4271 84.0531 95.4935 88.2271 100.02 89.6761C100.356 89.7829 100.629 90.0306 100.766 90.3509L103.381 96.4066L105.999 90.3509C106.137 90.0306 106.41 89.7829 106.747 89.6761C111.273 88.2271 114.34 84.0531 114.346 79.3221C114.346 73.2876 109.392 68.4278 103.381 68.4268ZM103.381 72.0338C107.428 72.0338 110.693 75.2715 110.693 79.2328C110.693 83.1951 107.437 86.4301 103.381 86.4301C99.3252 86.4301 96.0701 83.1942 96.0701 79.2328C96.0701 75.2706 99.3355 72.0338 103.381 72.0338ZM103.381 74.4338C100.705 74.4338 98.5084 76.5686 98.5084 79.2328C98.5084 81.898 100.714 84.0301 103.381 84.0301C106.05 84.0301 108.257 81.898 108.257 79.2328C108.257 76.5677 106.059 74.4338 103.381 74.4338ZM66.8355 76.8945C64.7701 77.1026 62.7495 77.8308 60.9841 79.0763C65.072 82.4789 71.0327 82.4752 75.1178 79.0736C73.3523 77.8289 71.3346 77.1044 69.2748 76.8964V78.0278C69.2748 79.6296 66.8364 79.6296 66.8364 78.0278V76.8936L66.8355 76.8945ZM85.1542 82.7072C84.0168 83.3378 82.7785 84.0108 81.5523 84.6543C79.5841 86.5065 77.2206 87.9693 74.5757 88.8936L73.0981 92.2897L85.114 99.2365L98.5028 91.683C95.8888 90.6556 93.6935 88.866 92.186 86.5921L85.1551 82.7063L85.1542 82.7072ZM99.6187 93.8207L87.5411 100.639L103.421 109.817C110.226 105.659 116.622 101.726 118.001 100.883L106.785 94.663L104.508 99.9546C104.3 100.445 103.841 100.69 103.383 100.69C102.925 100.689 102.468 100.445 102.261 99.9546L99.6196 93.8216L99.6187 93.8207ZM63.6981 93.8658C57.9364 96.82 53.514 99.0791 52.1963 99.7502L67.1243 109.385L82.6822 100.608L72.1327 94.5102L69.1748 101.3C68.9636 101.784 68.5084 102.026 68.0542 102.026C67.6 102.026 67.1449 101.784 66.9336 101.3L63.6981 93.8658ZM85.1075 102.012L69.4178 110.866L85.1187 121C85.7028 120.643 93.6421 115.792 101.081 111.247L85.1075 102.012Z" fill="#E13A8A"/>
<g clip-path="url(#clip1_203_864)">
<path d="M101.748 58.5284L104.027 61.705L104.056 61.7456L104.081 61.789C104.521 62.5527 104.747 63.3947 104.521 64.2362C104.296 65.0776 103.679 65.6939 102.917 66.1358L102.917 66.1358C102.165 66.5712 101.357 66.7393 100.52 66.5148C100.087 66.3988 99.7311 66.1964 99.5101 66.0707C99.5006 66.0653 99.4914 66.06 99.4824 66.0549L99.4712 66.0486L99.4601 66.0419L99.3455 65.9728L99.3124 65.9529L99.281 65.9305L94.6405 62.6213L91.3621 64.5088C91.3619 64.509 91.3617 64.5091 91.3615 64.5092C90.569 64.9672 89.5834 65.1 88.6976 64.8626C87.9149 64.6529 87.2405 64.164 86.8344 63.4576C86.8342 63.4574 86.8341 63.4571 86.8339 63.4569L87.701 62.9587C87.06 61.8453 87.6997 60.4786 88.6999 59.8994L101.748 58.5284ZM101.748 58.5284L102.952 57.8349L104.537 58.7149C104.538 58.7153 104.538 58.7156 104.539 58.716C104.905 58.9211 105.316 59.058 105.76 59.0599C106.203 59.0619 106.61 58.9289 106.97 58.7023L106.997 58.687C107.003 58.6837 107.009 58.6801 107.016 58.6762C107.245 58.5515 108.057 58.1074 108.31 57.1922L108.31 57.1918C108.419 56.7979 108.445 56.2161 108.091 55.6003L108.028 55.491L107.94 55.4007L105.375 52.7704L104.431 49.3577L104.413 49.2961L104.389 49.2373L104.337 49.1145L104.313 49.057L104.282 49.0029C104.014 48.5369 103.598 48.1649 103.035 48.0141C102.172 47.7827 101.403 48.2018 101.022 48.4095C101.016 48.413 101.01 48.4164 101.004 48.4197L100.993 48.4256L100.982 48.4319C100.528 48.694 100.213 49.0384 100.037 49.4613C99.8883 49.8192 99.8711 50.1733 99.8621 50.3572C99.8616 50.3676 99.8612 50.3774 99.8607 50.3867L99.8606 50.3867L99.8601 50.3991L99.7857 52.3179L98.5798 53.0168L96.9741 49.4591L96.9537 49.4139L96.9289 49.371C96.4854 48.6016 95.8573 47.9826 95.0064 47.7546C93.8795 47.4527 92.9502 47.9924 92.6136 48.1879C92.6026 48.1943 92.5922 48.2003 92.5825 48.2059L92.5812 48.2067C91.8315 48.641 91.384 49.1947 91.1524 49.8037C90.9435 50.3529 90.9405 50.8826 90.9387 51.1906C90.9387 51.2016 90.9386 51.2123 90.9385 51.2228L90.9382 51.2715L90.9426 51.32L91.4724 57.1368M101.748 58.5284L91.4724 57.1368M91.4724 57.1368L88.1987 59.0341L91.4724 57.1368ZM99.5642 55.9939L99.5587 55.9844L102.3 54.3955L102.603 54.2198L102.638 54.3476L102.725 54.436L102.434 54.6038L99.7162 56.1691L99.7123 56.1628L98.8757 56.6459L93.9651 59.4813L93.9639 59.4819L89.8341 61.8592L89.8315 61.8607C89.7418 61.9127 89.6211 61.9318 89.5227 61.9154C89.541 61.8748 89.5699 61.8285 89.6093 61.7838C89.6512 61.7362 89.6951 61.7015 89.7317 61.6804L89.732 61.6802L93.8664 59.2835L93.8679 59.2826L98.698 56.494L99.5642 55.9939ZM101.038 63.4212L97.5542 60.9409L99.082 60.0587L101.463 63.373C101.473 63.3924 101.482 63.4103 101.491 63.427C101.46 63.4455 101.425 63.4654 101.384 63.4895L101.384 63.4896C101.333 63.5186 101.297 63.5356 101.273 63.5454C101.261 63.5401 101.245 63.533 101.227 63.5238C101.174 63.4974 101.117 63.4658 101.038 63.4212ZM95.923 54.5653L94.3862 55.4526L93.9957 51.2467L93.9957 51.2444C93.9957 51.2437 93.9957 51.2429 93.9957 51.2422C93.9969 51.0935 93.9982 51.0116 94.0041 50.9448C94.0048 50.9367 94.0056 50.9296 94.0063 50.9235C94.0261 50.908 94.0595 50.8844 94.1125 50.8537C94.1531 50.8303 94.187 50.8109 94.2185 50.7935C94.2235 50.8011 94.2286 50.8091 94.2339 50.8174L95.923 54.5653ZM94.1138 50.6649C94.1138 50.6648 94.1144 50.6653 94.1158 50.6664C94.1145 50.6655 94.1139 50.6649 94.1138 50.6649ZM89.5011 61.9859C89.5009 61.986 89.5008 61.984 89.5013 61.9799C89.5016 61.9837 89.5013 61.9858 89.5011 61.9859Z" stroke="#E13A8A" stroke-width="2"/>
</g>
</g>
<defs>
<clipPath id="clip0_203_864">
<rect width="67" height="82" fill="white" transform="translate(51 39)"/>
</clipPath>
<clipPath id="clip1_203_864">
<rect width="28.3253" height="28.3253" fill="white" transform="translate(102.53 78.6931) rotate(-150)"/>
</clipPath>
</defs>
</svg>
