<svg width="12" height="26" viewBox="0 0 12 26" fill="none" xmlns="http://www.w3.org/2000/svg">
<g clip-path="url(#clip0_40_167)">
<path d="M5.6514 8.82093C5.70512 8.87486 5.8394 9.00967 6.00054 9.00967C6.16167 9.00967 6.29595 8.90182 6.34967 8.82093L6.91365 8.06599C7.88047 6.69091 7.88047 4.83051 6.91365 3.45543L6.43024 2.78137V1.27148C6.43024 1.00186 6.24224 0.840088 6.00054 0.840088C5.73197 0.840088 5.57084 1.02882 5.57084 1.27148V2.72745L5.08742 3.40151C4.1206 4.77658 4.1206 6.63698 5.08742 8.01206L5.6514 8.82093ZM5.78569 3.91379L6.00054 3.61721L6.21539 3.91379C6.96736 4.96532 6.96736 6.39432 6.21539 7.47282L6.00054 7.7694L5.78569 7.47282C5.03371 6.44825 5.03371 5.01924 5.78569 3.91379Z" fill="white"/>
<path d="M1.56937 7.93115L1.70365 8.79394C1.99907 10.4656 3.28817 11.7598 4.95326 12.0564L5.92008 12.2182H6.00065H6.08122L7.04805 12.0564C8.71313 11.7598 10.0022 10.4656 10.2977 8.79394L10.4319 7.93115L11.533 6.82569C11.6942 6.66392 11.6942 6.3943 11.533 6.20556C11.3719 6.04379 11.1033 6.04379 10.9153 6.20556L9.8411 7.31101L8.9817 7.44583C7.63888 7.66152 6.53778 8.55128 6.00065 9.79155C5.46353 8.55128 4.36242 7.68849 3.01961 7.44583L2.16021 7.31101L1.08596 6.23252C0.897966 6.07075 0.656259 6.07075 0.468266 6.23252C0.387697 6.31341 0.333984 6.42126 0.333984 6.52911C0.333984 6.63696 0.387697 6.74481 0.468266 6.82569L1.56937 7.93115ZM6.59149 10.897C6.77948 9.60281 7.82688 8.57824 9.08912 8.38951L9.43825 8.30862L9.38454 8.65913C9.19655 9.95332 8.14915 10.9779 6.88691 11.1666L6.53778 11.2475L6.59149 10.897ZM2.88533 8.38951C4.17443 8.57824 5.19496 9.62977 5.38296 10.897L5.46353 11.2475L5.1144 11.1666C3.8253 10.9779 2.80476 9.92636 2.61677 8.65913L2.5362 8.30862L2.88533 8.38951Z" fill="white"/>
<path d="M1.56937 12.38L1.70365 13.2428C1.99907 14.9145 3.28817 16.2087 4.95326 16.5052L5.92008 16.667H6.00065H6.08122L7.04805 16.5052C8.71313 16.2087 10.0022 14.9145 10.2977 13.2428L10.4319 12.38L11.533 11.2746C11.6136 11.1937 11.6673 11.0858 11.6673 10.978C11.6673 10.8701 11.6136 10.7623 11.533 10.6814C11.3719 10.5196 11.1033 10.5196 10.9153 10.6814L9.81424 11.7868L8.95484 11.9217C7.61203 12.1374 6.51092 13.0271 5.9738 14.2674C5.43667 13.0271 4.33556 12.1643 2.99275 11.9217L2.13335 11.7868L1.03225 10.6814C0.871109 10.5196 0.602547 10.5196 0.414553 10.6814C0.387697 10.7623 0.333984 10.8701 0.333984 10.978C0.333984 11.0858 0.387697 11.1937 0.468266 11.2746L1.56937 12.38ZM6.59149 15.3459C6.77948 14.0517 7.82688 13.0271 9.08912 12.8384L9.43825 12.7575L9.35768 13.108C9.16969 14.4022 8.12229 15.4268 6.86005 15.6155L6.51092 15.6964L6.59149 15.3459ZM2.88533 12.8384C4.17443 13.0271 5.19496 14.0786 5.38296 15.3459L5.46353 15.6964L5.1144 15.6155C3.8253 15.4268 2.80476 14.3752 2.61677 13.108L2.5362 12.7575L2.88533 12.8384Z" fill="white"/>
<path d="M10.9156 15.1031L9.84134 16.2085L8.98194 16.3433C7.63913 16.559 6.53802 17.4488 6.0009 18.6891C5.46377 17.4488 4.36266 16.586 3.01985 16.3433L2.16045 16.2085L1.05935 15.1031C0.978778 15.0222 0.871353 14.9683 0.763928 14.9683C0.656503 14.9683 0.549078 15.0222 0.468509 15.1031C0.307372 15.2648 0.307372 15.5345 0.468509 15.7232L1.56962 16.8287L1.7039 17.6915C1.9456 19.1474 2.96614 20.3607 4.38952 20.8191C4.36266 20.9 4.36266 21.0078 4.36266 21.0887C4.36266 21.8436 4.84608 22.4907 5.5712 22.6795V24.7286C5.5712 24.9982 5.75919 25.16 6.0009 25.16C6.26946 25.16 6.4306 24.9713 6.4306 24.7286V22.6795C7.15571 22.4907 7.63913 21.8167 7.63913 21.0617C7.63913 20.9809 7.63913 20.9 7.61227 20.8191C9.00879 20.3607 10.0293 19.1744 10.2979 17.6915L10.4322 16.8287L11.5333 15.7232C11.6944 15.5614 11.6944 15.2918 11.5333 15.1031C11.3721 14.9413 11.1036 14.9413 10.9156 15.1031ZM2.61701 17.5566L2.53644 17.2061L2.88557 17.287C4.17467 17.4758 5.19521 18.5273 5.3832 19.7945L5.46377 20.145L5.11464 20.0911C3.8524 19.8754 2.805 18.8508 2.61701 17.5566ZM6.77973 21.0887C6.77973 21.5201 6.4306 21.8706 6.0009 21.8706C5.5712 21.8706 5.22206 21.5201 5.22206 21.0887V21.0078L5.92033 21.1157H6.08146L6.77973 21.0078V21.0887ZM9.38478 17.5566C9.19679 18.743 8.28368 19.7406 7.102 20.0372C7.04829 20.0372 6.99458 20.0372 6.94086 20.0372L6.91401 20.0641L6.51116 20.145L6.59173 19.7945C6.77973 18.5003 7.82712 17.4758 9.08936 17.287L9.4385 17.2061L9.38478 17.5566Z" fill="white"/>
</g>
<defs>
<clipPath id="clip0_40_167">
<rect width="11.3333" height="24.32" fill="white" transform="translate(0.333984 0.840088)"/>
</clipPath>
</defs>
</svg>
