<svg width="247" height="63" viewBox="0 0 247 63" fill="none" xmlns="http://www.w3.org/2000/svg">
<g clip-path="url(#clip0_141_858)">
<path d="M237.128 27.0659C233.804 27.0659 230.287 28.6283 228.837 29.7459L230.851 33.2782C232.312 32.3697 234.973 31.5121 236.938 31.5121C240.613 31.5121 241.873 34.1921 242.02 37.2661C234.818 34.0501 226.858 36.2558 226.858 43.2721C226.858 47.7639 230.386 51.2962 235.168 51.2962C236.585 51.2876 237.983 50.9667 239.263 50.3562C240.543 49.7458 241.673 48.8608 242.574 47.7639L242.978 50.8915H247.005V39.4799C247 29.9925 243.02 27.0659 237.128 27.0659ZM235.617 46.85C233.25 46.85 231.688 45.183 231.688 43.4168C231.688 39.2279 238.538 39.3807 242.164 41.246C241.761 44.1726 238.653 46.85 235.617 46.85Z" fill="#4F7348"/>
<path d="M10.2729 27.0659C6.94843 27.0659 3.43143 28.631 1.98184 29.7459L3.99575 33.2782C5.45604 32.3697 8.11719 31.5121 10.083 31.5121C13.7604 31.5121 15.0175 34.1921 15.1646 37.2661C7.96207 34.0501 0.00537109 36.2558 0.00537109 43.2721C0.00537109 47.7639 3.53039 51.2962 8.31511 51.2962C9.73209 51.2875 11.1298 50.9666 12.4092 50.3562C13.6886 49.7457 14.8183 48.8607 15.7182 47.7639L16.122 50.8915H20.1445V39.4799C20.1445 29.9925 16.1648 27.0659 10.2729 27.0659ZM8.76175 46.85C6.3948 46.85 4.83555 45.183 4.83555 43.4168C4.83555 39.2279 11.685 39.3807 15.309 41.2487C14.9078 44.1753 11.784 46.85 8.76175 46.85Z" fill="#4F7348"/>
<path d="M25.2341 50.8861H30.0697V31.9087H39.7407V27.4678H25.2341V50.8861Z" fill="#4F7348"/>
<path d="M56.1542 27.0659C53.0304 27.0659 50.3612 28.5801 48.9999 30.5982V27.4732H44.1671V63H48.9999V47.7585C50.3612 49.7766 53.0304 51.2908 56.1542 51.2908C62.3056 51.2908 66.7293 45.8396 66.7293 39.177C66.7293 32.5144 62.2976 27.0659 56.1542 27.0659ZM55.4482 46.85C51.6209 46.85 48.9999 43.3659 48.9999 39.177C48.9999 34.9881 51.6209 31.5067 55.4482 31.5067C59.2754 31.5067 61.8938 34.9908 61.8938 39.177C61.8938 43.3633 59.2754 46.85 55.4482 46.85Z" fill="#4F7348"/>
<path d="M81.7414 27.0659C74.8919 27.0659 70.4603 32.5171 70.4603 39.177C70.4603 45.8369 74.8919 51.2908 81.7414 51.2908C88.5908 51.2908 93.0225 45.8396 93.0225 39.177C93.0225 32.5144 88.5908 27.0659 81.7414 27.0659ZM81.7414 46.85C77.8125 46.85 75.2958 43.315 75.2958 39.177C75.2958 35.039 77.8125 31.5067 81.7414 31.5067C85.6703 31.5067 88.1897 35.039 88.1897 39.177C88.1897 43.315 85.6703 46.85 81.7414 46.85Z" fill="#4F7348"/>
<path d="M112.867 36.9552H102.391V27.4678H97.5558V50.8861H102.391V41.3987H112.867V50.8861H117.703V27.4678H112.867V36.9552Z" fill="#4F7348"/>
<path d="M133.654 27.0659C126.802 27.0659 122.37 32.5171 122.37 39.177C122.37 45.8369 126.802 51.2908 133.654 51.2908C140.506 51.2908 144.935 45.8396 144.935 39.177C144.935 32.5144 140.498 27.0659 133.654 27.0659ZM133.654 46.85C129.725 46.85 127.206 43.315 127.206 39.177C127.206 35.039 129.725 31.5067 133.654 31.5067C137.583 31.5067 140.099 35.039 140.099 39.177C140.099 43.315 137.58 46.85 133.654 46.85Z" fill="#4F7348"/>
<path d="M184.13 42.5083V27.4678H179.294V50.8861H183.325L194.606 35.8457V50.8861H199.442V27.4678H195.411L184.13 42.5083Z" fill="#4F7348"/>
<path d="M224.467 27.4678H218.423L209.961 36.9552V27.4678H205.128V50.8861H209.961V42.8621L211.675 41.045L219.228 50.8861H225.272L214.796 37.7646L224.467 27.4678Z" fill="#4F7348"/>
<path d="M169.583 27.4678L161.56 39.7827L153.632 27.4678H149.605V50.8861H154.44V36.4594L159.776 45.1749H163.373L168.776 36.4594V50.8861H173.611V27.4678H169.583Z" fill="#4F7348"/>
<path d="M131.643 63H135.654C135.805 61.1313 136.652 59.3879 138.027 58.1159C139.401 56.8439 141.203 56.1363 143.073 56.1337V52.1913C141.213 52.1942 139.381 52.6543 137.739 53.5313C136.096 54.4083 134.694 55.6755 133.654 57.2218C132.612 55.6746 131.207 54.4073 129.562 53.5311C127.918 52.655 126.083 52.1968 124.221 52.1967V56.1391C126.091 56.1415 127.892 56.8483 129.267 58.1191C130.642 59.3899 131.49 61.1321 131.643 63Z" fill="#4F7348"/>
<path d="M40.3425 6.38391C40.3425 4.44356 41.5915 2.82749 43.6401 2.82749C44.217 2.82496 44.7856 2.96487 45.2957 3.23485V4.15679C44.8144 3.85681 44.2577 3.70062 43.691 3.70654C42.2735 3.70654 41.4042 4.81876 41.4042 6.32227C41.4042 7.96782 42.2601 8.9112 43.6054 8.9112C44.1711 8.90936 44.7257 8.75375 45.2101 8.46096L45.5337 9.19261C44.9218 9.58444 44.2112 9.79359 43.485 9.79562C41.4497 9.7849 40.3425 8.25459 40.3425 6.38391Z" fill="#4F7348"/>
<path d="M47.1572 3.23482C47.8572 2.96913 48.599 2.83117 49.3476 2.82745C51.4524 2.82745 52.7148 4.09244 52.7148 6.2874C52.7148 8.48236 51.2706 9.78487 49.3476 9.78487C48.947 9.78289 48.5508 9.70183 48.1815 9.54634V12.9768H47.1572V3.23482ZM49.3315 8.90313C50.8346 8.90313 51.6477 7.84719 51.6477 6.25792C51.6477 4.4998 50.6367 3.71187 49.3182 3.71187C48.9373 3.70982 48.5584 3.76677 48.1949 3.88071V8.62173C48.5415 8.80422 48.9267 8.90072 49.3182 8.90313H49.3315Z" fill="#4F7348"/>
<path d="M55.384 6.49643C55.384 7.86058 56.1863 8.90848 57.5878 8.90848C58.1643 8.89971 58.7292 8.74481 59.2299 8.45822L59.5509 9.18988C58.9172 9.57783 58.1886 9.78194 57.446 9.7795C55.3412 9.7795 54.3168 8.17146 54.3168 6.23646C54.3168 4.21034 55.4401 2.8194 57.0395 2.8194C58.7244 2.8194 59.6926 4.14066 59.6926 6.23646V6.48839L55.384 6.49643ZM58.6121 5.69241C58.5827 4.67935 58.0933 3.66897 57.0529 3.66897C56.0125 3.66897 55.4134 4.58287 55.384 5.69241H58.6121Z" fill="#4F7348"/>
<path d="M61.0834 8.79055H61.4632C62.4447 7.49608 62.993 5.9899 63.4557 2.99628H66.8229V8.79055H67.7643V11.9289H66.7828V9.65084H62.0676V11.9289H61.0834V8.79055ZM65.7986 3.86729H64.242C63.8916 6.2579 63.3567 7.61936 62.6132 8.76107V8.79055H65.7986V3.86729Z" fill="#4F7348"/>
<path d="M69.0641 6.38386C69.0641 4.4435 70.3132 2.82744 72.3618 2.82744C72.9387 2.82457 73.5074 2.9645 74.0174 3.2348V4.15674C73.5362 3.85649 72.9795 3.70027 72.4127 3.70649C70.9952 3.70649 70.1259 4.81871 70.1259 6.32222C70.1259 7.96777 70.9818 8.91115 72.3297 8.91115C72.8954 8.90891 73.4499 8.75333 73.9345 8.4609L74.2581 9.19256C73.6452 9.58447 72.9337 9.79361 72.2067 9.79557C70.1741 9.78485 69.0641 8.25454 69.0641 6.38386Z" fill="#4F7348"/>
<path d="M77.5718 3.88878H75.4322V2.98828H81.0326L80.7144 3.88878H78.5962V9.64017H77.5718V3.88878Z" fill="#4F7348"/>
<path d="M82.6052 2.99628H84.908C86.7802 2.99628 87.3766 3.91017 87.3766 4.78118C87.3855 5.11139 87.2821 5.43482 87.0833 5.69831C86.8845 5.96181 86.6022 6.1497 86.2827 6.23109V6.2579C86.6399 6.31758 86.9639 6.50382 87.1956 6.78273C87.4273 7.06163 87.5513 7.41465 87.5451 7.77749C87.5451 8.70479 86.9433 9.65353 85.0631 9.65353H82.6052V2.99628ZM85.0471 5.88001C85.9029 5.88001 86.3389 5.54232 86.3389 4.85087C86.3389 4.21838 85.9885 3.79761 84.9214 3.79761H83.6162V5.88001H85.0471ZM85.0765 8.84683C86.1276 8.84683 86.5074 8.43678 86.5074 7.748C86.5074 7.05923 86.0447 6.65186 85.2156 6.65186H83.6108V8.84683H85.0765Z" fill="#4F7348"/>
<path d="M93.2391 8.90314C92.7167 9.44877 92.0009 9.76647 91.2466 9.78757C90.0404 9.78757 89.1418 9.01571 89.1418 7.73464C89.126 7.35631 89.2249 6.98206 89.4254 6.66109C89.6259 6.34013 89.9186 6.08747 90.2651 5.93633C90.7873 5.71045 91.3519 5.59985 91.9206 5.61204L93.183 5.56916V5.1484C93.183 4.13534 92.5785 3.68508 91.7521 3.68508C91.1038 3.68712 90.4701 3.87801 89.9281 4.2345L89.5349 3.50284C90.2312 3.05956 91.0395 2.82521 91.8644 2.82747C93.2391 2.82747 94.2207 3.50284 94.2207 5.09211V7.37284C94.2207 8.6807 94.2635 9.2998 94.3464 9.63748H93.4264L93.2391 8.90314ZM92.0169 6.39998C91.5867 6.38559 91.159 6.47185 90.7679 6.6519C90.5874 6.75385 90.4384 6.90348 90.337 7.08448C90.2356 7.26548 90.1857 7.47092 90.1929 7.67837C90.1827 7.84362 90.2077 8.00915 90.2662 8.16399C90.3247 8.31883 90.4154 8.45944 90.5322 8.57651C90.649 8.69358 90.7894 8.78444 90.9439 8.84306C91.0984 8.90168 91.2636 8.92674 91.4285 8.91655C92.2576 8.91655 92.8754 8.36714 93.183 8.04285V6.35709L92.0169 6.39998Z" fill="#4F7348"/>
<path d="M99.6366 9.3507V8.47968C100.192 8.78369 100.814 8.94311 101.447 8.94333C102.429 8.94333 103.004 8.52256 103.004 7.74802C103.004 6.97349 102.316 6.609 101.132 6.609C100.944 6.60684 100.756 6.61669 100.57 6.63849V5.79426C100.795 5.80767 101.132 5.80767 101.244 5.80767C102.52 5.80767 102.873 5.23146 102.873 4.71153C102.873 4.03616 102.338 3.67167 101.495 3.67167C100.949 3.6921 100.413 3.83108 99.9254 4.07903L99.6312 3.3045C100.231 2.99651 100.894 2.83315 101.568 2.82745C102.985 2.82745 103.91 3.57251 103.91 4.62845C103.91 5.37082 103.432 5.93631 102.661 6.15876V6.20164C103.56 6.38388 104.05 6.94669 104.05 7.80967C104.05 8.77985 103.279 9.79291 101.495 9.79291C100.85 9.78775 100.215 9.63658 99.6366 9.3507Z" fill="#4F7348"/>
<path d="M109.77 8.90311C109.248 9.44922 108.532 9.76701 107.778 9.78753C106.572 9.78753 105.673 9.01568 105.673 7.73461C105.657 7.35628 105.756 6.98203 105.957 6.66106C106.157 6.34009 106.45 6.08743 106.796 5.9363C107.319 5.71066 107.883 5.60007 108.452 5.612L109.714 5.56912V5.14836C109.714 4.1353 109.112 3.68505 108.283 3.68505C107.635 3.68708 107.001 3.87797 106.459 4.23446L106.066 3.5028C106.764 3.05455 107.575 2.81642 108.404 2.81671C109.778 2.81671 110.76 3.49209 110.76 5.08136V7.3728C110.76 8.68067 110.803 9.29976 110.888 9.63745H109.976L109.77 8.90311ZM108.551 6.39994C108.12 6.38496 107.693 6.47125 107.302 6.65187C107.121 6.75335 106.972 6.90288 106.87 7.084C106.769 7.26511 106.719 7.47078 106.727 7.67833C106.716 7.84345 106.741 8.00892 106.799 8.16376C106.857 8.31861 106.948 8.45927 107.064 8.57639C107.181 8.69351 107.321 8.78442 107.475 8.84306C107.63 8.9017 107.795 8.92674 107.96 8.91651C108.789 8.91651 109.407 8.3671 109.714 8.04281V6.35706L108.551 6.39994Z" fill="#4F7348"/>
<path d="M113.031 2.99628H114.042V8.76107H116.315V2.99628H117.31V8.76107H119.583V2.99628H120.594V8.76107H121.536V11.9289H120.538V9.65084H113.031V2.99628Z" fill="#4F7348"/>
<path d="M123.336 2.99628H124.36V6.80731C124.36 7.31384 124.344 7.70781 124.317 8.14734H124.344C124.611 7.73997 124.879 7.34332 125.285 6.75639L127.882 3.00432H128.864V9.6562H127.839V5.83713C127.839 5.3306 127.853 4.93663 127.882 4.4971H127.853C127.601 4.90447 127.347 5.30112 126.927 5.89073L124.304 9.6428H123.336V2.99628Z" fill="#4F7348"/>
<path d="M132.656 3.88878H130.517V2.98828H136.114L135.793 3.88878H133.673V9.64017H132.648L132.656 3.88878Z" fill="#4F7348"/>
<path d="M137.69 2.99628H138.73V5.59861C139.038 5.58253 139.292 5.56912 139.532 5.56912C141.608 5.56912 142.295 6.48302 142.295 7.57916C142.295 8.60562 141.736 9.64816 139.575 9.64816H137.703L137.69 2.99628ZM139.543 8.80395C140.931 8.80395 141.241 8.26794 141.241 7.60865C141.241 6.87699 140.848 6.42674 139.53 6.42674C139.262 6.42694 138.994 6.44125 138.727 6.46962V8.80395H139.543ZM143.234 2.99628H144.258V9.64816H143.234V2.99628Z" fill="#4F7348"/>
<path d="M149.926 3.23482C150.626 2.96913 151.367 2.83117 152.116 2.82745C154.221 2.82745 155.483 4.09244 155.483 6.2874C155.483 8.48236 154.052 9.78487 152.129 9.78487C151.729 9.78289 151.333 9.70183 150.963 9.54634V12.9768H149.926V3.23482ZM152.1 8.90313C153.603 8.90313 154.416 7.84719 154.416 6.25792C154.416 4.4998 153.405 3.71187 152.087 3.71187C151.706 3.70982 151.327 3.76677 150.963 3.88071V8.62173C151.314 8.80631 151.704 8.90287 152.1 8.90313Z" fill="#4F7348"/>
<path d="M161.135 8.90311C160.612 9.44874 159.896 9.76644 159.142 9.78753C157.933 9.78753 157.037 9.01567 157.037 7.73461C157.021 7.35658 157.12 6.98255 157.32 6.66161C157.52 6.34068 157.812 6.08784 158.158 5.9363C158.68 5.71098 159.245 5.6004 159.813 5.612L161.078 5.56912V5.14836C161.078 4.1353 160.474 3.68505 159.647 3.68505C158.998 3.68718 158.364 3.87804 157.821 4.23446L157.43 3.5028C158.124 3.05659 158.93 2.81853 159.754 2.81671C161.132 2.81671 162.113 3.49209 162.113 5.08136V7.3728C162.113 8.68067 162.156 9.29976 162.239 9.63745H161.327L161.135 8.90311ZM159.912 6.39994C159.482 6.38556 159.054 6.47181 158.663 6.65187C158.483 6.75381 158.334 6.90344 158.232 7.08445C158.131 7.26545 158.081 7.47088 158.088 7.67833C158.078 7.84358 158.103 8.00911 158.162 8.16395C158.22 8.31879 158.311 8.4594 158.428 8.57648C158.544 8.69355 158.685 8.7844 158.839 8.84303C158.994 8.90165 159.159 8.9267 159.324 8.91651C160.15 8.91651 160.768 8.3671 161.078 8.04281V6.35706L159.912 6.39994Z" fill="#4F7348"/>
<path d="M163.972 6.38386C163.972 4.4435 165.221 2.82744 167.27 2.82744C167.847 2.82457 168.415 2.9645 168.925 3.2348V4.15674C168.444 3.85607 167.888 3.69982 167.321 3.70649C165.903 3.70649 165.034 4.81871 165.034 6.32222C165.034 7.96777 165.89 8.91115 167.238 8.91115C167.803 8.90891 168.358 8.75333 168.842 8.4609L169.166 9.19256C168.553 9.58447 167.842 9.79361 167.115 9.79557C165.082 9.78485 163.972 8.25454 163.972 6.38386Z" fill="#4F7348"/>
<path d="M172.48 3.88878H170.34V2.98828H175.938L175.614 3.88878H173.496V9.64017H172.472L172.48 3.88878Z" fill="#4F7348"/>
<path d="M177.976 6.49643C177.976 7.86058 178.778 8.90848 180.18 8.90848C180.755 8.89972 181.32 8.7448 181.819 8.45822L182.143 9.18988C181.509 9.57783 180.781 9.78194 180.038 9.7795C177.933 9.7795 176.909 8.17146 176.909 6.23646C176.909 4.21034 178.032 2.8194 179.631 2.8194C181.316 2.8194 182.285 4.14066 182.285 6.23646V6.48839L177.976 6.49643ZM181.204 5.69241C181.175 4.67935 180.685 3.66897 179.645 3.66897C178.604 3.66897 178.003 4.58287 177.976 5.69241H181.204Z" fill="#4F7348"/>
<path d="M184.25 2.99628H185.288V5.6388H188.498V2.99628H189.522V9.64816H188.498V6.53931H185.288V9.64816H184.25V2.99628Z" fill="#4F7348"/>
<path d="M191.849 2.99628H192.873V6.80731C192.873 7.31384 192.873 7.70781 192.83 8.14734H192.86C193.127 7.73997 193.395 7.34332 193.798 6.75639L196.395 3.00432H197.377V9.6562H196.353V5.83713C196.353 5.3306 196.353 4.93663 196.395 4.4971H196.366C196.115 4.90447 195.863 5.30112 195.441 5.89073L192.817 9.6428H191.849V2.99628Z" fill="#4F7348"/>
<path d="M199.688 2.9963H200.712V6.80734C200.712 7.31387 200.699 7.70784 200.672 8.14737H200.699C200.966 7.74 201.234 7.34335 201.64 6.75642L204.234 3.00434H205.221V9.65623H204.197V5.83715C204.197 5.33062 204.197 4.93666 204.237 4.49713H204.21C203.959 4.9045 203.705 5.30115 203.285 5.89076L200.659 9.64283H199.69L199.688 2.9963ZM200.474 0H201.359C201.359 0.632492 201.667 1.20871 202.523 1.20871C203.379 1.20871 203.689 0.632492 203.689 0H204.587C204.587 1.13902 203.841 1.99664 202.523 1.99664C201.204 1.99664 200.447 1.13902 200.474 0Z" fill="#4F7348"/>
</g>
<defs>
<clipPath id="clip0_141_858">
<rect width="247" height="63" fill="white"/>
</clipPath>
</defs>
</svg>
