<svg width="32" height="32" viewBox="0 0 32 32" fill="none" xmlns="http://www.w3.org/2000/svg"><path d="M31.275 15.113c-.037 3.962-1.056 7.062-3.175 9.756-2.275 2.893-5.238 4.731-8.863 5.475-2.8.569-5.524.319-8.2-.65a12.65 12.65 0 01-1.73-.781.563.563 0 00-.5-.044c-2.532.819-5.07 1.631-7.607 2.437-.113.038-.263.144-.35.063-.1-.1.025-.25.062-.369.507-1.506 1.013-3.019 1.525-4.525.313-.919.613-1.831.938-2.744.087-.237.056-.419-.075-.637a14.484 14.484 0 01-1.456-3.507c-.632-2.312-.7-4.65-.207-6.987.538-2.55 1.663-4.825 3.394-6.788 2.094-2.375 4.675-3.943 7.744-4.7a14.646 14.646 0 015.919-.23c2.6.424 4.944 1.455 6.987 3.118a15.044 15.044 0 014.65 6.463c.538 1.393.963 3.675.944 4.65zM4.662 27.593c1.55-.5 3.032-.974 4.5-1.456a.548.548 0 01.52.063 10.65 10.65 0 001.793.938c2.031.862 4.144 1.174 6.325.893 2.675-.343 5.025-1.418 7-3.287 2.488-2.357 3.819-5.244 3.938-8.657.112-3.343-.963-6.28-3.207-8.775-2.131-2.368-4.806-3.718-7.962-4.056-2.744-.294-5.313.3-7.688 1.725a12.281 12.281 0 00-4.669 5c-1.193 2.319-1.6 4.781-1.256 7.363.256 1.95.956 3.743 2.081 5.356.125.181.163.331.088.544-.231.637-.438 1.281-.656 1.919-.263.787-.519 1.575-.807 2.43z" fill="#51C85D"/><path d="M8.813 12.169c.03-1.488.556-2.594 1.55-3.475a1.38 1.38 0 011.156-.35c.187.025.375.044.562.031.35-.019.588.15.707.456.418 1.088.825 2.175 1.23 3.27.138.374-.1.668-.3.937-.23.318-.512.6-.787.88-.28.288-.318.45-.125.8 1.132 2.057 2.72 3.638 4.875 4.613.075.032.15.075.225.113.288.131.544.1.763-.15.4-.469.837-.9 1.206-1.394.244-.325.413-.381.781-.219 1.1.475 2.132 1.075 3.182 1.657.193.106.262.268.256.493-.056 1.844-1.113 2.807-2.969 3.232-.9.206-1.731-.02-2.556-.32-1.731-.624-3.4-1.362-4.8-2.6a17.598 17.598 0 01-2.925-3.318c-.638-.95-1.3-1.881-1.669-2.987-.212-.588-.369-1.188-.362-1.67z" fill="#51C85D"/></svg>