<svg width="14" height="26" viewBox="0 0 14 26" fill="none" xmlns="http://www.w3.org/2000/svg">
<path d="M12.96 7.93207C12.7161 7.80254 12.4112 7.83492 12.2282 8.02922L11.3744 8.93596C11.3439 8.77404 11.3134 8.61213 11.2829 8.48259C11.039 7.2844 10.8255 6.24813 10.3681 4.98517C10.2462 4.66134 9.91073 4.46704 9.57531 4.59657C9.27038 4.72611 9.08742 5.08232 9.20939 5.43854C9.6363 6.63673 9.84975 7.60824 10.0937 8.77404C10.1852 9.16264 10.2767 9.58363 10.3681 10.037L7.0139 13.5992L3.62917 10.0046C3.78164 9.09788 4.14756 7.83492 4.54396 6.53958C4.66594 6.15098 4.78791 5.76238 4.90988 5.34139C5.51974 3.26885 6.25157 2.13543 7.0139 2.13543C7.19686 2.13543 7.37981 2.20019 7.56277 2.29734C7.83721 2.49165 8.23362 2.36211 8.38608 2.07066C8.56904 1.74683 8.44707 1.35822 8.17263 1.19631C7.80672 0.969622 7.41031 0.840088 6.98341 0.840088C5.61122 0.840088 4.51347 2.23258 3.72065 4.95279C3.59868 5.34139 3.47671 5.76238 3.35474 6.15098C3.04981 7.18725 2.77537 8.09399 2.59241 8.93596L1.7691 8.06161C1.58614 7.8673 1.28121 7.80254 1.03727 7.96446C0.793324 8.12637 0.671352 8.38544 0.732338 8.67689L3.0803 19.2015L3.14129 19.2987C3.81213 21.8894 4.60495 25.1601 6.98341 25.1601C9.36186 25.1601 10.2462 21.6303 10.8255 19.2987L13.2345 8.64451C13.2955 8.35306 13.1735 8.06161 12.96 7.93207ZM2.43995 10.5551L6.1296 14.4735L3.84263 16.9023L2.43995 10.5551ZM9.69728 18.8453L9.66679 18.9748C9.20939 20.8207 8.41658 23.8647 6.98341 23.8647C5.55023 23.8647 4.84889 21.1445 4.30002 18.9748L4.17805 18.3919L11.3744 10.7494C11.4354 10.7171 11.4659 10.6523 11.4964 10.6199L11.5269 10.5875L9.69728 18.8453Z" fill="white"/>
<path d="M9.02632 4.07844C9.39682 4.07844 9.69716 3.75947 9.69716 3.366C9.69716 2.97253 9.39682 2.65356 9.02632 2.65356C8.65582 2.65356 8.35547 2.97253 8.35547 3.366C8.35547 3.75947 8.65582 4.07844 9.02632 4.07844Z" fill="white"/>
<path d="M6.49506 6.57185C6.86556 6.57185 7.16591 6.25288 7.16591 5.85941C7.16591 5.46594 6.86556 5.14697 6.49506 5.14697C6.12457 5.14697 5.82422 5.46594 5.82422 5.85941C5.82422 6.25288 6.12457 6.57185 6.49506 6.57185Z" fill="white"/>
<path d="M8.53803 9.58356C8.90853 9.58356 9.20888 9.2646 9.20888 8.87113C9.20888 8.47766 8.90853 8.15869 8.53803 8.15869C8.16754 8.15869 7.86719 8.47766 7.86719 8.87113C7.86719 9.2646 8.16754 9.58356 8.53803 9.58356Z" fill="white"/>
<path d="M6.1601 10.9437C6.5306 10.9437 6.83095 10.6247 6.83095 10.2312C6.83095 9.83777 6.5306 9.5188 6.1601 9.5188C5.78961 9.5188 5.48926 9.83777 5.48926 10.2312C5.48926 10.6247 5.78961 10.9437 6.1601 10.9437Z" fill="white"/>
</svg>
