<svg width="117" height="48" viewBox="0 0 117 48" fill="none" xmlns="http://www.w3.org/2000/svg">
<path d="M113.935 21.413C113.812 20.7119 113.647 20.0383 113.454 19.3235C113.33 18.8698 113.179 18.4299 113.028 17.9487C112.183 15.5731 110.936 13.3599 109.344 11.4051C108.918 10.869 108.464 10.3466 107.969 9.86542C107.407 9.28005 106.81 8.72917 106.182 8.21576V11.955V16.684V23.8875V24.3962L106.044 39.518L96.985 39.4355H94.923V37.071C94.4661 37.5406 93.9642 37.9643 93.4245 38.3358C92.9121 38.694 92.3639 38.9981 91.7886 39.2431C91.2176 39.4925 90.6237 39.6859 90.0152 39.8205C89.1136 40.0251 88.1901 40.1174 87.2658 40.0954H86.4547H86.2485H85.6024H85.4649L84.7363 39.9579H84.5714L83.994 39.8067H83.8428C83.6177 39.7386 83.3973 39.656 83.1829 39.5593L82.6055 39.2981H82.4818L82.1931 39.1331C81.8864 38.9569 81.5924 38.7594 81.3133 38.542H81.2171L80.7222 38.1158C80.5423 37.9472 80.3724 37.7682 80.2135 37.5797C80.0623 37.4147 79.9248 37.2223 79.7874 37.0435C79.4816 36.6072 79.2104 36.1475 78.9763 35.6688C78.7209 35.1668 78.5004 34.6477 78.3164 34.1154C78.3223 34.0422 78.3223 33.9686 78.3164 33.8954C77.5542 36.0885 76.4601 38.1517 75.0721 40.0129C75.5532 40.6041 76.0619 41.1677 76.5843 41.7038C77.1067 42.2125 77.629 42.7074 78.1927 43.1748H78.2752C78.5364 43.4085 78.8251 43.6284 79.1 43.8346L79.265 43.9446L80.0623 44.5082L80.2548 44.632C80.5297 44.8107 80.8046 44.9894 81.0933 45.1544L81.2583 45.2506C81.5745 45.4293 81.8907 45.608 82.2206 45.773H82.3031C83.0123 46.1401 83.7421 46.466 84.4889 46.749L84.7088 46.8315L85.5887 47.134L85.9598 47.2439C86.2073 47.2439 86.4685 47.3951 86.7297 47.4501L87.1421 47.5601L87.8844 47.7251L88.3381 47.8076L88.943 47.9175H89.0804H89.5341C89.8028 47.9593 90.0735 47.9868 90.3452 48H90.7438C91.1425 48 91.5549 48 91.9673 48H92.1735C92.8334 48 93.5483 48 94.1394 48L94.9367 47.9175H95.4041C99.1939 47.2051 102.733 45.5185 105.673 43.0236L106.168 42.6249L106.429 42.4049C108.754 40.4369 110.65 38.0118 111.998 35.2804C113.346 32.5489 114.117 29.5694 114.265 26.527V25.6609C114.29 24.2377 114.18 22.8153 113.935 21.413Z" fill="white"/>
<path d="M116.506 3.37645C116.438 2.45058 116.019 1.58556 115.335 0.958088C114.651 0.330617 113.753 -0.0119643 112.825 0.000319258C111.896 0.0126028 111.008 0.378823 110.34 1.02418C109.673 1.66954 109.277 2.54533 109.234 3.47268V3.56891C109.263 4.52792 109.668 5.43686 110.363 6.09835C111.058 6.75983 111.986 7.12047 112.945 7.10193C113.424 7.09122 113.896 6.98635 114.333 6.79331C114.771 6.60026 115.167 6.32284 115.498 5.97687C115.828 5.6309 116.087 5.22317 116.261 4.77699C116.434 4.3308 116.517 3.85489 116.506 3.37645ZM112.945 6.57954C112.538 6.59315 112.132 6.5247 111.752 6.37828C111.372 6.23185 111.025 6.01044 110.732 5.72722C110.133 5.16068 109.782 4.37974 109.756 3.55517V3.48643C109.753 2.68173 110.064 1.90751 110.622 1.32813C111.19 0.733212 111.97 0.387577 112.792 0.366962C113.614 0.346348 114.411 0.652435 115.008 1.21815C115.454 1.6413 115.765 2.18754 115.901 2.78763C116.037 3.38771 115.991 4.01462 115.771 4.58888C115.55 5.16314 115.163 5.65889 114.66 6.01328C114.157 6.36768 113.561 6.56476 112.945 6.57954Z" fill="white"/>
<path d="M112.354 3.74767H112.78C112.842 3.75816 112.9 3.78687 112.945 3.83015L113.097 3.98137C113.153 4.04526 113.204 4.11429 113.248 4.18758L113.825 5.09489H114.485L113.853 4.14634L113.715 3.95388C113.677 3.89748 113.63 3.84661 113.578 3.80266L113.454 3.66519L113.275 3.55521C113.388 3.5216 113.495 3.47057 113.592 3.40399C113.684 3.35406 113.764 3.28351 113.825 3.19778C113.892 3.11594 113.943 3.02281 113.976 2.92284C113.992 2.81338 113.992 2.70237 113.976 2.59291C113.982 2.44928 113.949 2.30678 113.88 2.1805C113.825 2.06755 113.739 1.97231 113.633 1.90555C113.53 1.82104 113.407 1.76426 113.275 1.74058C113.13 1.71953 112.981 1.71953 112.835 1.74058H111.694L111.791 5.19112H112.354V3.74767ZM112.354 2.16675H112.822C112.983 2.15337 113.143 2.19718 113.275 2.29047C113.351 2.3752 113.403 2.47788 113.427 2.58865C113.451 2.69941 113.446 2.8145 113.413 2.92284C113.388 2.99625 113.346 3.06239 113.289 3.1153C113.234 3.16897 113.168 3.21103 113.097 3.23902H112.849H112.382L112.354 2.16675Z" fill="white"/>
<path d="M33.7206 44.2882L33.1844 44.6044L33.7206 44.2882Z" fill="url(#paint0_linear_116_1839)"/>
<path d="M76.9279 34.9127C77.2441 34.1841 77.5328 33.428 77.7802 32.6582C77.5391 33.4253 77.2546 34.178 76.9279 34.9127Z" fill="#F2D422"/>
<path d="M76.9279 34.9127C77.2441 34.1841 77.5328 33.428 77.7802 32.6582C77.5391 33.4253 77.2546 34.178 76.9279 34.9127Z" fill="url(#paint1_linear_116_1839)"/>
<path d="M77.4504 17.8661L77.2854 17.4125L77.4504 17.8661Z" fill="#F2D422"/>
<path d="M77.4504 17.8661L77.2854 17.4125L77.4504 17.8661Z" fill="url(#paint2_linear_116_1839)"/>
<path d="M74.5771 12.4499L74.2472 11.9962L74.5771 12.4499Z" fill="#F2D422"/>
<path d="M74.5771 12.4499L74.2472 11.9962L74.5771 12.4499Z" fill="url(#paint3_linear_116_1839)"/>
<path d="M77.0791 16.9039L76.9279 16.4227L77.0791 16.9039Z" fill="#F2D422"/>
<path d="M77.0791 16.9039L76.9279 16.4227L77.0791 16.9039Z" fill="url(#paint4_linear_116_1839)"/>
<path d="M75.6907 14.1545L75.402 13.7008L75.6907 14.1545Z" fill="#F2D422"/>
<path d="M75.6907 14.1545L75.402 13.7008L75.6907 14.1545Z" fill="url(#paint5_linear_116_1839)"/>
<path d="M76.1856 15.0342L75.9381 14.5668L76.1856 15.0342Z" fill="#F2D422"/>
<path d="M76.1856 15.0342L75.9381 14.5668L76.1856 15.0342Z" fill="url(#paint6_linear_116_1839)"/>
<path d="M76.653 15.9551C76.5705 15.8039 76.5018 15.6389 76.4193 15.4877C76.5018 15.6389 76.5705 15.8039 76.653 15.9551Z" fill="#F2D422"/>
<path d="M76.653 15.9551C76.5705 15.8039 76.5018 15.6389 76.4193 15.4877C76.5018 15.6389 76.5705 15.8039 76.653 15.9551Z" fill="url(#paint7_linear_116_1839)"/>
<path d="M75.1407 13.2883C75.0445 13.137 74.9483 12.9721 74.8521 12.8346C74.9483 12.9721 75.0445 13.137 75.1407 13.2883Z" fill="#F2D422"/>
<path d="M75.1407 13.2883C75.0445 13.137 74.9483 12.9721 74.8521 12.8346C74.9483 12.9721 75.0445 13.137 75.1407 13.2883Z" fill="url(#paint8_linear_116_1839)"/>
<path d="M91.8161 35.16C90.9374 35.16 90.0947 34.8109 89.4734 34.1896C88.852 33.5683 88.503 32.7256 88.503 31.8469V19.2683C88.5066 18.3907 88.8568 17.5501 89.4774 16.9296C90.0979 16.309 90.9385 15.9588 91.8161 15.9552C92.5481 15.9717 93.254 16.2301 93.8236 16.6903C94.3931 17.1504 94.7942 17.7862 94.9642 18.4984C95.0853 18.9463 95.1409 19.4093 95.1291 19.8731V31.8882C95.1183 32.7597 94.7644 33.5918 94.1443 34.2042C93.5241 34.8167 92.6876 35.16 91.8161 35.16Z" fill="white"/>
<path d="M79.2512 15.2815C79.3747 15.0326 79.5171 14.7936 79.6774 14.5666C79.8423 14.3329 80.021 14.113 80.1997 13.9068C80.3785 13.7006 80.5572 13.5219 80.7359 13.3432C80.9283 13.1644 81.1208 12.9857 81.327 12.8208C81.5152 12.671 81.7126 12.5332 81.9181 12.4083H82.0144C82.2343 12.2709 82.4543 12.1334 82.6742 12.0234L83.3341 11.721H83.4716L83.7328 11.6385L84.2002 11.4735L84.915 11.2948H85.0937L85.9048 11.1574L86.7159 11.0886H86.9221H87.8157C89.1416 11.0842 90.4519 11.3754 91.6511 11.9409L92.0086 12.1334C93.052 12.5559 94.0007 13.1821 94.7992 13.9755L95.0467 14.278V13.9205H94.8405H95.0467L95.1429 3.36272C94.1857 3.23373 93.2217 3.16029 92.256 3.14276H92.0498C91.6236 3.14276 91.2112 3.14276 90.7851 3.14276H90.3864H90.0015H89.5616H89.1079L88.3243 3.26649L87.8707 3.33522L87.0871 3.51394L86.6747 3.59642L85.7261 3.85761L85.5199 3.92635C85.135 4.03633 84.7501 4.1738 84.3789 4.31127L84.0764 4.42125L83.2654 4.75118L82.8804 4.92989C82.6422 5.03071 82.4085 5.14068 82.1793 5.25982L81.7807 5.45228L81.1071 5.82346L80.7359 6.02966C80.4884 6.18088 80.241 6.3321 80.0073 6.49707L79.6774 6.86824C79.3474 7.0882 79.0175 7.30815 78.7151 7.54185L78.5363 7.67932L77.7803 8.27045L77.4778 8.53165L76.9004 9.05404L76.7355 9.19151L76.5842 9.35648L76.0344 9.89261L75.7457 10.1951L75.1958 10.7999L74.9621 11.0749L74.3847 11.7897C75.9226 13.7406 77.1258 15.9333 77.9452 18.2784C78.2486 17.227 78.6876 16.2195 79.2512 15.2815Z" fill="white"/>
<path d="M74.9759 38.4319L75.4295 37.7308L74.9759 38.4319Z" fill="#F5D720"/>
<path d="M76.3781 36.0399C76.5705 35.6688 76.7492 35.2976 76.9142 34.9127C76.7355 35.2976 76.5705 35.6688 76.3781 36.0399Z" fill="#F5D720"/>
<path d="M74.4809 39.1331L74.9758 38.432L74.4809 39.1331Z" fill="#F5D720"/>
<path d="M21.4169 23.7773L20.9083 24.0798C19.9462 24.6871 19.1499 25.5238 18.5909 26.5147C18.0318 27.5056 17.7275 28.6198 17.7052 29.7573C17.698 29.8764 17.698 29.9957 17.7052 30.1148C17.7052 34.0281 18.5713 35.994 20.3034 36.0123C20.4727 36.0264 20.6428 36.0264 20.812 36.0123C22.9291 35.774 24.0014 33.8769 24.0289 30.321V27.1866V26.9117V21.7977C23.293 22.545 22.477 23.2089 21.5956 23.7773H21.4169Z" fill="white"/>
<path d="M31.7685 4.93003C28.9045 3.61221 25.7929 2.91867 22.6404 2.89545H21.5956C16.6185 3.08337 11.8452 4.92111 8.02715 8.11937C6.27276 9.60054 4.75254 11.3386 3.51809 13.2746C0.924759 17.3371 -0.288691 22.1279 0.0580433 26.9351C0.404778 31.7424 2.29319 36.3094 5.44269 39.9578C7.40577 42.2291 9.80653 44.0815 12.5015 45.4042C15.1966 46.7269 18.1305 47.4928 21.1282 47.6562H22.1592C23.2584 47.6665 24.3568 47.5929 25.4448 47.4362C25.8297 47.4362 26.2146 47.3263 26.5996 47.2438C28.9533 46.7959 31.2189 45.9695 33.3082 44.7968L33.8581 44.4668C35.6841 43.3677 37.3495 42.0215 38.807 40.4664C38.6283 40.2465 37.5973 37.8545 37.4323 37.6345C36.7312 39.0917 35.3015 39.5454 33.4731 39.6966C29.5002 40.0128 26.9982 39.0642 25.9534 36.7684L25.6785 37.0571C24.661 38.1461 23.3909 38.9676 21.9805 39.4491C20.5186 39.934 18.9837 40.1619 17.444 40.1227H16.9078C12.44 39.9715 9.48435 38.5968 8.05465 35.9986C7.59961 35.1409 7.29725 34.2105 7.16108 33.2492C7.07548 32.6159 7.03413 31.9774 7.03736 31.3383C7.03912 30.8767 7.08515 30.4164 7.17483 29.9636C7.66973 27.1317 9.69056 24.9184 13.2373 23.2962C14.329 22.8114 15.4547 22.4071 16.6054 22.0865C17.5402 21.8115 18.3925 21.5366 19.1761 21.2479C20.2027 20.8957 21.2001 20.4636 22.1592 19.9557C23.294 19.4286 24.267 18.6074 24.9774 17.5774C25.2245 17.1611 25.3573 16.6868 25.3623 16.2027C25.3643 15.8345 25.3367 15.4667 25.2798 15.1029C25.2231 14.4894 25.0135 13.8999 24.67 13.3883C24.3266 12.8768 23.8604 12.4595 23.314 12.1748C22.9924 12.0254 22.6561 11.9102 22.3104 11.8311C21.7214 11.6861 21.1162 11.6168 20.5096 11.6249C19.0222 11.5043 17.536 11.871 16.2754 12.6697C15.7811 13.0684 15.3896 13.5798 15.1336 14.161C14.8777 14.7423 14.7648 15.3764 14.8045 16.0102C14.7941 16.3416 14.8171 16.6732 14.8732 17C14.9527 17.5782 15.0815 18.1485 15.2582 18.7047C15.3544 19.0346 15.4644 19.3508 15.5881 19.6945L14.887 19.5707L9.71805 18.6359C9.58018 17.7721 9.51122 16.8987 9.51184 16.024C9.51184 15.8728 9.51184 15.7215 9.51184 15.5703C9.60727 14.1688 10.249 12.8606 11.299 11.9273C12.8119 10.7136 14.6189 9.92156 16.5366 9.63155C18.4454 9.27306 20.3821 9.08445 22.3242 9.06792H23.8364C25.2111 9.06792 26.4346 9.1504 27.5619 9.27413C29.4918 9.43074 31.3778 9.93367 33.1295 10.7588C34.1286 11.2656 35.0021 11.9888 35.6864 12.8759C36.0297 13.3442 36.3245 13.8463 36.5662 14.3743C37.3519 13.0241 38.2732 11.7574 39.3157 10.5939C37.2254 8.19712 34.6539 6.26733 31.7685 4.93003Z" fill="white"/>
<path d="M77.9453 18.2787C77.1329 15.9403 75.9391 13.7524 74.4122 11.8038C72.1946 8.93783 69.3271 6.64044 66.0465 5.10132C62.7659 3.56219 59.1662 2.82547 55.5446 2.95198C51.9231 3.07849 48.3836 4.0646 45.2184 5.82889C42.0531 7.59319 39.3529 10.0851 37.3407 13.0988C35.3285 16.1125 34.062 19.5616 33.6457 23.1614C33.2295 26.7611 33.6755 30.4083 34.9468 33.8017C36.2181 37.1951 38.2784 40.2374 40.9575 42.6775C43.6366 45.1176 46.8576 46.8854 50.3547 47.8351V33.6893V22.5403V22.4028H45.9556V19.2547H50.396V16.3541C50.3686 15.1068 50.6415 13.8712 51.1918 12.7514C51.7421 11.6317 52.5536 10.6608 53.5578 9.92043C55.5786 8.41209 58.0481 7.62765 60.5689 7.69339C66.4939 7.69339 69.3945 9.63174 69.422 13.5634V14.1546C69.4404 14.342 69.4404 14.5308 69.422 14.7182L63.9232 16.4778C64.1754 15.7188 64.3144 14.9267 64.3356 14.1271V14.0583C64.3356 11.8863 63.4008 10.7865 61.5861 10.7865C60.1014 10.7865 59.3591 11.7763 59.3454 13.7559C59.3454 15.0344 60.4039 16.8352 62.5622 19.2547H67.305V22.4028H62.3697V47.8351C67.3205 46.4893 71.6769 43.5221 74.7422 39.4081C76.959 36.4146 78.4099 32.9242 78.9682 29.2412C79.5265 25.5583 79.1753 21.7947 77.9453 18.2787Z" fill="white"/>
<defs>
<linearGradient id="paint0_linear_116_1839" x1="33.4456" y1="951.435" x2="33.4456" y2="952.425" gradientUnits="userSpaceOnUse">
<stop stop-color="#85A02E"/>
<stop offset="1" stop-color="#82992C"/>
</linearGradient>
<linearGradient id="paint1_linear_116_1839" x1="77.3678" y1="996.773" x2="77.3678" y2="997.887" gradientUnits="userSpaceOnUse">
<stop stop-color="#819630"/>
<stop offset="1" stop-color="#748E2D"/>
</linearGradient>
<linearGradient id="paint2_linear_116_1839" x1="77.3266" y1="1336.77" x2="77.3266" y2="1338.83" gradientUnits="userSpaceOnUse">
<stop stop-color="#83992C"/>
<stop offset="1" stop-color="#82952D"/>
</linearGradient>
<linearGradient id="paint3_linear_116_1839" x1="-0.250724" y1="237.749" x2="-0.221031" y2="237.749" gradientUnits="userSpaceOnUse">
<stop stop-color="#83992C"/>
<stop offset="1" stop-color="#82952D"/>
</linearGradient>
<linearGradient id="paint4_linear_116_1839" x1="42.7841" y1="255.92" x2="42.7977" y2="255.92" gradientUnits="userSpaceOnUse">
<stop stop-color="#83992C"/>
<stop offset="1" stop-color="#82952D"/>
</linearGradient>
<linearGradient id="paint5_linear_116_1839" x1="10.2161" y1="239.481" x2="10.242" y2="239.481" gradientUnits="userSpaceOnUse">
<stop stop-color="#83992C"/>
<stop offset="1" stop-color="#82952D"/>
</linearGradient>
<linearGradient id="paint6_linear_116_1839" x1="20.0666" y1="247.198" x2="20.0888" y2="247.198" gradientUnits="userSpaceOnUse">
<stop stop-color="#83992C"/>
<stop offset="1" stop-color="#82952D"/>
</linearGradient>
<linearGradient id="paint7_linear_116_1839" x1="23.6524" y1="248.133" x2="23.6757" y2="248.133" gradientUnits="userSpaceOnUse">
<stop stop-color="#83992C"/>
<stop offset="1" stop-color="#82952D"/>
</linearGradient>
<linearGradient id="paint8_linear_116_1839" x1="9.67185" y1="238.601" x2="9.69783" y2="238.601" gradientUnits="userSpaceOnUse">
<stop stop-color="#83992C"/>
<stop offset="1" stop-color="#82952D"/>
</linearGradient>
</defs>
</svg>
