<svg width="115" height="48" viewBox="0 0 115 48" fill="none" xmlns="http://www.w3.org/2000/svg">
<path d="M112.462 21.1359C112.339 20.4439 112.177 19.779 111.987 19.0734C111.865 18.6256 111.715 18.1914 111.566 17.7165C110.732 15.3716 109.502 13.187 107.929 11.2575C107.509 10.7283 107.061 10.2126 106.573 9.73769C106.018 9.1599 105.429 8.61614 104.808 8.10938V11.8002V16.4681V23.5784V24.0805L104.673 39.0068L95.7306 38.9254H93.6952V36.5914C93.2442 37.055 92.7488 37.4731 92.2161 37.8398C91.7103 38.1934 91.1692 38.4936 90.6014 38.7354C90.0377 38.9816 89.4515 39.1724 88.8509 39.3053C87.961 39.5072 87.0494 39.5984 86.1371 39.5767H85.3365H85.1329H84.4952H84.3595L83.6403 39.441H83.4775L82.9076 39.2917H82.7583C82.5361 39.2245 82.3186 39.1429 82.107 39.0475L81.5371 38.7897H81.4149L81.13 38.6268C80.8272 38.4529 80.537 38.2579 80.2616 38.0434H80.1666L79.6781 37.6227C79.5005 37.4563 79.3329 37.2796 79.176 37.0935C79.0267 36.9307 78.8911 36.7407 78.7554 36.5643C78.4535 36.1336 78.1858 35.6799 77.9548 35.2074C77.7027 34.7118 77.4851 34.1995 77.3034 33.674C77.3092 33.6018 77.3092 33.5292 77.3034 33.4569C76.5511 35.6216 75.4711 37.6581 74.1011 39.4953C74.576 40.0788 75.0781 40.6351 75.5937 41.1643C76.1093 41.6664 76.625 42.1549 77.1813 42.6162H77.2627C77.5206 42.8469 77.8055 43.064 78.0769 43.2675L78.2397 43.3761L79.0267 43.9324L79.2167 44.0546C79.4881 44.231 79.7595 44.4074 80.0444 44.5702L80.2073 44.6652C80.5194 44.8416 80.8315 45.018 81.1571 45.1808H81.2386C81.9386 45.5432 82.659 45.8649 83.3961 46.1442L83.6132 46.2257L84.4816 46.5242L84.848 46.6327C85.0922 46.6327 85.3501 46.782 85.6079 46.8363L86.015 46.9448L86.7477 47.1077L87.1955 47.1891L87.7925 47.2976H87.9282H88.376C88.6413 47.3389 88.9085 47.3661 89.1766 47.3791H89.5701C89.9636 47.3791 90.3707 47.3791 90.7778 47.3791H90.9813C91.6327 47.3791 92.3383 47.3791 92.9217 47.3791L93.7088 47.2976H94.1701C97.9109 46.5944 101.404 44.9296 104.306 42.467L104.795 42.0734L105.053 41.8563C107.348 39.9138 109.218 37.5201 110.549 34.8239C111.879 32.1278 112.641 29.1868 112.787 26.1837V25.3289C112.812 23.9241 112.703 22.5201 112.462 21.1359Z" fill="#16795F"/>
<path d="M114.999 3.33278C114.932 2.41888 114.519 1.56505 113.843 0.945695C113.168 0.32634 112.282 -0.0118096 111.365 0.000315129C110.449 0.0124398 109.572 0.373924 108.913 1.01093C108.254 1.64794 107.864 2.51241 107.821 3.42777V3.52275C107.849 4.46935 108.25 5.36653 108.936 6.01947C109.622 6.6724 110.538 7.02837 111.485 7.01008C111.957 6.9995 112.422 6.89599 112.855 6.70544C113.287 6.51489 113.677 6.24105 114.004 5.89956C114.33 5.55807 114.586 5.15562 114.757 4.7152C114.928 4.27478 115.01 3.80503 114.999 3.33278ZM111.485 6.49444C111.083 6.50787 110.682 6.44031 110.307 6.29578C109.931 6.15125 109.589 5.9327 109.3 5.65314C108.708 5.09393 108.362 4.32309 108.336 3.50918V3.44134C108.333 2.64704 108.64 1.88284 109.191 1.31095C109.752 0.723728 110.522 0.382564 111.333 0.362216C112.145 0.341868 112.931 0.643996 113.52 1.2024C113.961 1.62007 114.268 2.15925 114.402 2.75157C114.536 3.34389 114.491 3.96269 114.273 4.52952C114.055 5.09635 113.674 5.58569 113.177 5.9355C112.681 6.28531 112.092 6.47985 111.485 6.49444Z" fill="#16795F"/>
<path d="M110.901 3.69911H111.322C111.383 3.70946 111.44 3.7378 111.485 3.78052L111.634 3.92978C111.69 3.99285 111.74 4.06099 111.783 4.13332L112.353 5.0289H113.004L112.38 4.09262L112.244 3.90265C112.206 3.84698 112.161 3.79677 112.109 3.75338L111.987 3.61769L111.81 3.50914C111.921 3.47596 112.027 3.42559 112.122 3.35987C112.214 3.31058 112.293 3.24095 112.353 3.15633C112.419 3.07555 112.469 2.98362 112.502 2.88494C112.517 2.7769 112.517 2.66733 112.502 2.55928C112.508 2.41751 112.475 2.27685 112.407 2.1522C112.353 2.04072 112.268 1.94671 112.163 1.88081C112.061 1.7974 111.94 1.74135 111.81 1.71798C111.666 1.6972 111.52 1.6972 111.376 1.71798H110.25L110.345 5.12389H110.901V3.69911ZM110.901 2.13863H111.362C111.521 2.12543 111.68 2.16867 111.81 2.26076C111.885 2.34438 111.936 2.44574 111.96 2.55507C111.984 2.6644 111.979 2.77801 111.946 2.88494C111.922 2.95741 111.88 3.02269 111.824 3.07491C111.769 3.12789 111.705 3.16941 111.634 3.19704H111.39H110.928L110.901 2.13863Z" fill="#16795F"/>
<path d="M33.2845 43.7153L32.7552 44.0274L33.2845 43.7153Z" fill="url(#paint0_linear_116_900)"/>
<path d="M75.9329 34.4612C76.245 33.742 76.53 32.9957 76.7742 32.2358C76.5362 32.993 76.2553 33.736 75.9329 34.4612Z" fill="#F2D422"/>
<path d="M75.9329 34.4612C76.245 33.742 76.53 32.9957 76.7742 32.2358C76.5362 32.993 76.2553 33.736 75.9329 34.4612Z" fill="url(#paint1_linear_116_900)"/>
<path d="M76.4486 17.635L76.2858 17.1873L76.4486 17.635Z" fill="#F2D422"/>
<path d="M76.4486 17.635L76.2858 17.1873L76.4486 17.635Z" fill="url(#paint2_linear_116_900)"/>
<path d="M73.6125 12.2889L73.2869 11.8411L73.6125 12.2889Z" fill="#F2D422"/>
<path d="M73.6125 12.2889L73.2869 11.8411L73.6125 12.2889Z" fill="url(#paint3_linear_116_900)"/>
<path d="M76.0822 16.6854L75.9329 16.2104L76.0822 16.6854Z" fill="#F2D422"/>
<path d="M76.0822 16.6854L75.9329 16.2104L76.0822 16.6854Z" fill="url(#paint4_linear_116_900)"/>
<path d="M74.7117 13.9715L74.4268 13.5237L74.7117 13.9715Z" fill="#F2D422"/>
<path d="M74.7117 13.9715L74.4268 13.5237L74.7117 13.9715Z" fill="url(#paint5_linear_116_900)"/>
<path d="M75.2001 14.8398L74.9559 14.3784L75.2001 14.8398Z" fill="#F2D422"/>
<path d="M75.2001 14.8398L74.9559 14.3784L75.2001 14.8398Z" fill="url(#paint6_linear_116_900)"/>
<path d="M75.6615 15.7487C75.5801 15.5994 75.5123 15.4366 75.4308 15.2874C75.5123 15.4366 75.5801 15.5994 75.6615 15.7487Z" fill="#F2D422"/>
<path d="M75.6615 15.7487C75.5801 15.5994 75.5123 15.4366 75.4308 15.2874C75.5123 15.4366 75.5801 15.5994 75.6615 15.7487Z" fill="url(#paint7_linear_116_900)"/>
<path d="M74.1689 13.1165C74.0739 12.9672 73.9789 12.8044 73.8839 12.6687C73.9789 12.8044 74.0739 12.9672 74.1689 13.1165Z" fill="#F2D422"/>
<path d="M74.1689 13.1165C74.0739 12.9672 73.9789 12.8044 73.8839 12.6687C73.9789 12.8044 74.0739 12.9672 74.1689 13.1165Z" fill="url(#paint8_linear_116_900)"/>
<path d="M90.6285 34.7052C89.7612 34.7052 88.9294 34.3606 88.3161 33.7473C87.7028 33.134 87.3583 32.3023 87.3583 31.4349V19.019C87.3618 18.1528 87.7075 17.3231 88.3201 16.7106C88.9326 16.098 89.7623 15.7524 90.6285 15.7488C91.351 15.765 92.0478 16.0202 92.61 16.4743C93.1722 16.9285 93.5681 17.5561 93.7359 18.2591C93.8555 18.7012 93.9103 19.1582 93.8987 19.616V31.4757C93.888 32.3359 93.5387 33.1573 92.9266 33.7618C92.3145 34.3663 91.4888 34.7052 90.6285 34.7052Z" fill="#16795F"/>
<path d="M78.2262 15.0838C78.348 14.8381 78.4887 14.6022 78.6468 14.3782C78.8096 14.1475 78.986 13.9304 79.1624 13.7268C79.3388 13.5233 79.5152 13.3469 79.6916 13.1705C79.8816 12.9941 80.0716 12.8177 80.2751 12.6549C80.4608 12.507 80.6557 12.371 80.8586 12.2478H80.9536C81.1707 12.1121 81.3878 11.9764 81.6049 11.8678L82.2563 11.5693H82.3919L82.6498 11.4879L83.1111 11.3251L83.8167 11.1487H83.9931L84.7937 11.013L85.5943 10.9451H85.7978H86.6799C87.9886 10.9408 89.2819 11.2282 90.4657 11.7864L90.8185 11.9764C91.8484 12.3934 92.7849 13.0115 93.5731 13.7947L93.8173 14.0932V13.7404H93.6138H93.8173L93.9123 3.31916C92.9674 3.19185 92.016 3.11936 91.0628 3.10205H90.8592C90.4386 3.10205 90.0315 3.10205 89.6108 3.10205H89.2173H88.8374H88.4032H87.9554L87.1819 3.22418L86.7341 3.29202L85.9607 3.46842L85.5536 3.54984L84.6173 3.80766L84.4138 3.8755C84.0338 3.98406 83.6539 4.11975 83.2875 4.25545L82.989 4.364L82.1884 4.68966L81.8085 4.86607C81.5733 4.96558 81.3426 5.07413 81.1164 5.19173L80.7229 5.3817L80.058 5.74807L79.6916 5.95161C79.4474 6.10088 79.2031 6.25014 78.9725 6.41297L78.6468 6.77934C78.3211 6.99645 77.9955 7.21356 77.697 7.44424L77.5205 7.57994L76.7742 8.16342L76.4757 8.42123L75.9058 8.93687L75.743 9.07256L75.5937 9.23539L75.0509 9.7646L74.766 10.0631L74.2232 10.6602L73.9925 10.9316L73.4226 11.6372C74.9406 13.5628 76.1282 15.7271 76.9371 18.0419C77.2365 17.0041 77.6699 16.0097 78.2262 15.0838Z" fill="#16795F"/>
<path d="M74.0061 37.935L74.4539 37.2429L74.0061 37.935Z" fill="#F5D720"/>
<path d="M75.3901 35.5736C75.5801 35.2073 75.7565 34.8409 75.9193 34.4609C75.7429 34.8409 75.5801 35.2073 75.3901 35.5736Z" fill="#F5D720"/>
<path d="M73.5175 38.6268L74.006 37.9348L73.5175 38.6268Z" fill="#F5D720"/>
<path d="M21.1399 23.4699L20.6378 23.7684C19.6882 24.3679 18.9022 25.1937 18.3504 26.1718C17.7986 27.1499 17.4982 28.2497 17.4762 29.3725C17.4691 29.49 17.4691 29.6078 17.4762 29.7253C17.4762 33.5881 18.331 35.5285 20.0408 35.5466C20.2078 35.5605 20.3758 35.5605 20.5428 35.5466C22.6325 35.3114 23.6909 33.4388 23.7181 29.9289V26.835V26.5637V21.5159C22.9917 22.2535 22.1863 22.9088 21.3163 23.4699H21.1399Z" fill="#16795F"/>
<path d="M31.3576 4.86617C28.5306 3.56541 25.4593 2.88083 22.3475 2.85791H21.3163C16.4036 3.0434 11.692 4.85737 7.92333 8.01426C6.19163 9.47628 4.69107 11.1919 3.47258 13.1028C0.912798 17.1128 -0.284957 21.8416 0.0572925 26.5867C0.399542 31.3317 2.26353 35.8397 5.37229 39.4409C7.30999 41.6828 9.67969 43.5112 12.3398 44.8168C15 46.1224 17.896 46.8784 20.8549 47.0397H21.8726C22.9576 47.0499 24.0417 46.9773 25.1157 46.8226C25.4956 46.8226 25.8756 46.714 26.2555 46.6326C28.5788 46.1905 30.8151 45.3748 32.8773 44.2173L33.4201 43.8916C35.2225 42.8067 36.8664 41.4779 38.3051 39.9429C38.1287 39.7258 37.111 37.3648 36.9482 37.1476C36.2561 38.586 34.8449 39.0338 33.0402 39.183C29.1186 39.4951 26.649 38.5589 25.6178 36.2928L25.3464 36.5777C24.342 37.6526 23.0884 38.4635 21.6962 38.9388C20.2532 39.4174 18.7382 39.6423 17.2183 39.6037H16.6891C12.2791 39.4544 9.36168 38.0975 7.95047 35.5329C7.50132 34.6863 7.20287 33.7679 7.06846 32.819C6.98396 32.1939 6.94315 31.5637 6.94633 30.9329C6.94807 30.4773 6.99351 30.0229 7.08203 29.5759C7.57053 26.7807 9.56522 24.596 13.0661 22.9948C14.1437 22.5163 15.2548 22.1172 16.3906 21.8007C17.3133 21.5293 18.1546 21.2579 18.9281 20.973C19.9414 20.6253 20.9259 20.1989 21.8726 19.6975C22.9927 19.1772 23.9532 18.3667 24.6543 17.35C24.8982 16.939 25.0293 16.4709 25.0343 15.993C25.0363 15.6296 25.009 15.2666 24.9529 14.9075C24.8969 14.3019 24.69 13.72 24.351 13.2151C24.012 12.7101 23.5518 12.2983 23.0124 12.0172C22.695 11.8697 22.363 11.756 22.0219 11.678C21.4404 11.5348 20.8431 11.4664 20.2443 11.4744C18.7762 11.3554 17.3092 11.7174 16.0649 12.5057C15.577 12.8993 15.1905 13.4041 14.9379 13.9778C14.6853 14.5515 14.5739 15.1774 14.613 15.8031C14.6028 16.1302 14.6255 16.4575 14.6809 16.7801C14.7593 17.3507 14.8864 17.9137 15.0608 18.4627C15.1558 18.7883 15.2643 19.1004 15.3865 19.4396L14.6944 19.3175L9.59236 18.3948C9.45626 17.5422 9.3882 16.6801 9.38882 15.8166C9.38882 15.6674 9.38882 15.5181 9.38882 15.3688C9.48301 13.9854 10.1164 12.6942 11.1528 11.773C12.6462 10.5749 14.4298 9.79314 16.3228 9.50689C18.2068 9.15303 20.1185 8.96686 22.0354 8.95054H23.5281C24.885 8.95054 26.0927 9.03196 27.2054 9.15409C29.1104 9.30867 30.9719 9.80509 32.7009 10.6196C33.6872 11.1198 34.5494 11.8337 35.2248 12.7093C35.5637 13.1716 35.8547 13.6671 36.0933 14.1883C36.8688 12.8555 37.7781 11.6052 38.8072 10.4567C36.7439 8.09101 34.2056 6.18618 31.3576 4.86617Z" fill="#16795F"/>
<path d="M76.9371 18.0424C76.1352 15.7342 74.9568 13.5746 73.4498 11.6512C71.2608 8.82232 68.4304 6.55465 65.1922 5.03543C61.954 3.51622 58.4009 2.78902 54.8262 2.9139C51.2515 3.03877 47.7578 4.01212 44.6335 5.7536C41.5092 7.49507 38.8439 9.95472 36.8577 12.9295C34.8716 15.9042 33.6214 19.3087 33.2106 22.8619C32.7997 26.4151 33.2399 30.0151 34.4948 33.3646C35.7497 36.7141 37.7833 39.7171 40.4277 42.1256C43.0722 44.5341 46.2515 46.2791 49.7034 47.2165V33.2536V22.2489V22.1132H45.3612V19.0058H49.7441V16.1427C49.7171 14.9115 49.9865 13.6918 50.5297 12.5866C51.0729 11.4814 51.8738 10.523 52.8651 9.79221C54.8597 8.30338 57.2973 7.52909 59.7854 7.59398C65.6338 7.59398 68.497 9.50725 68.5241 13.3881V13.9716C68.5422 14.1566 68.5422 14.3429 68.5241 14.5279L63.0964 16.2648C63.3453 15.5155 63.4825 14.7337 63.5034 13.9444V13.8766C63.5034 11.7326 62.5807 10.6471 60.7896 10.6471C59.3241 10.6471 58.5913 11.6241 58.5778 13.5781C58.5778 14.84 59.6226 16.6176 61.753 19.0058H66.4344V22.1132H61.563V47.2165C66.4497 45.8881 70.7498 42.9592 73.7754 38.8984C75.9636 35.9437 77.3957 32.4984 77.9468 28.8631C78.4979 25.2278 78.1512 21.5129 76.9371 18.0424Z" fill="#16795F"/>
<defs>
<linearGradient id="paint0_linear_116_900" x1="33.0131" y1="939.129" x2="33.0131" y2="940.106" gradientUnits="userSpaceOnUse">
<stop stop-color="#85A02E"/>
<stop offset="1" stop-color="#82992C"/>
</linearGradient>
<linearGradient id="paint1_linear_116_900" x1="76.3671" y1="983.881" x2="76.3671" y2="984.98" gradientUnits="userSpaceOnUse">
<stop stop-color="#819630"/>
<stop offset="1" stop-color="#748E2D"/>
</linearGradient>
<linearGradient id="paint2_linear_116_900" x1="76.3265" y1="1319.48" x2="76.3265" y2="1321.51" gradientUnits="userSpaceOnUse">
<stop stop-color="#83992C"/>
<stop offset="1" stop-color="#82952D"/>
</linearGradient>
<linearGradient id="paint3_linear_116_900" x1="-0.247467" y1="234.674" x2="-0.218157" y2="234.674" gradientUnits="userSpaceOnUse">
<stop stop-color="#83992C"/>
<stop offset="1" stop-color="#82952D"/>
</linearGradient>
<linearGradient id="paint4_linear_116_900" x1="42.2307" y1="252.61" x2="42.2441" y2="252.61" gradientUnits="userSpaceOnUse">
<stop stop-color="#83992C"/>
<stop offset="1" stop-color="#82952D"/>
</linearGradient>
<linearGradient id="paint5_linear_116_900" x1="10.0839" y1="236.383" x2="10.1096" y2="236.383" gradientUnits="userSpaceOnUse">
<stop stop-color="#83992C"/>
<stop offset="1" stop-color="#82952D"/>
</linearGradient>
<linearGradient id="paint6_linear_116_900" x1="19.807" y1="244.001" x2="19.829" y2="244.001" gradientUnits="userSpaceOnUse">
<stop stop-color="#83992C"/>
<stop offset="1" stop-color="#82952D"/>
</linearGradient>
<linearGradient id="paint7_linear_116_900" x1="23.3464" y1="244.924" x2="23.3695" y2="244.924" gradientUnits="userSpaceOnUse">
<stop stop-color="#83992C"/>
<stop offset="1" stop-color="#82952D"/>
</linearGradient>
<linearGradient id="paint8_linear_116_900" x1="9.54677" y1="235.515" x2="9.57242" y2="235.515" gradientUnits="userSpaceOnUse">
<stop stop-color="#83992C"/>
<stop offset="1" stop-color="#82952D"/>
</linearGradient>
</defs>
</svg>
