<svg width="24" height="24" viewBox="0 0 24 24" fill="none" xmlns="http://www.w3.org/2000/svg">
<path d="M19.5 5H4.5C3.11937 5 2 6.11937 2 7.5V17.5C2 18.8806 3.11937 20 4.5 20H19.5C20.8806 20 22 18.8806 22 17.5V7.5C22 6.11937 20.8806 5 19.5 5ZM15.385 11.6711L20.6768 7.13621C20.7134 7.2534 20.75 7.37059 20.75 7.5V17.5C20.75 17.5867 20.717 17.6636 20.7 17.7454L15.385 11.6711ZM19.5 6.25C19.583 6.25 19.6562 6.28176 19.7344 6.29762L12 12.9273L4.26562 6.29762C4.34375 6.28176 4.41699 6.25 4.5 6.25H19.5ZM3.29945 17.7441C3.28234 17.6623 3.25 17.5867 3.25 17.5V7.5C3.25 7.37059 3.28723 7.2534 3.32387 7.13621L8.61379 11.6699L3.29945 17.7441ZM4.5 18.75C4.37367 18.75 4.25891 18.7134 4.14355 18.678L9.56348 12.4841L11.5935 14.2236C11.7101 14.325 11.8554 14.375 12 14.375C12.1446 14.375 12.2899 14.325 12.4065 14.2236L14.4365 12.4841L19.8564 18.678C19.7417 18.7134 19.627 18.75 19.5 18.75H4.5Z" fill="black"/>
</svg>
