<svg width="24" height="24" viewBox="0 0 24 24" fill="none" xmlns="http://www.w3.org/2000/svg">
<path d="M16.3467 21.0966C15.6134 21.0911 14.8834 20.9991 14.1717 20.8224C11.7141 20.2294 9.18327 18.7252 7.04671 16.5867C4.91015 14.4483 3.40406 11.9171 2.81109 9.46174C2.18672 6.87893 2.63203 4.66924 4.06359 3.23767L4.47234 2.82892C4.84319 2.45881 5.34574 2.25095 5.86968 2.25095C6.39363 2.25095 6.89617 2.45881 7.26702 2.82892L9.61593 5.17736C9.98627 5.5481 10.1943 6.05068 10.1943 6.57471C10.1943 7.09873 9.98627 7.60132 9.61593 7.97205L8.22843 9.35908C8.89359 10.5263 9.79827 11.6944 10.8675 12.7636C11.9367 13.8328 13.1058 14.738 14.2725 15.4031L15.6595 14.0156C15.843 13.8321 16.0608 13.6865 16.3006 13.5872C16.5404 13.4878 16.7973 13.4367 17.0569 13.4367C17.3164 13.4367 17.5734 13.4878 17.8131 13.5872C18.0529 13.6865 18.2707 13.8321 18.4542 14.0156L20.8026 16.3641C21.1731 16.7347 21.3812 17.2372 21.3812 17.7612C21.3812 18.2852 21.1731 18.7877 20.8026 19.1583L20.3934 19.567C19.3842 20.5781 17.9873 21.0966 16.3467 21.0966ZM5.86968 3.65627C5.79484 3.6559 5.72067 3.67047 5.65153 3.69912C5.58239 3.72777 5.51966 3.76994 5.46703 3.82314L5.05781 4.23189C3.98578 5.30392 3.67265 7.04439 4.17609 9.12986C4.70906 11.3391 6.08109 13.6346 8.03906 15.592C9.99702 17.5495 12.292 18.9202 14.5017 19.455C16.5876 19.9585 18.3272 19.6453 19.3992 18.5733L19.808 18.1645C19.9148 18.0577 19.9747 17.9128 19.9747 17.7617C19.9747 17.6106 19.9148 17.4657 19.808 17.3588L17.46 15.0103C17.3531 14.9035 17.2082 14.8435 17.0571 14.8435C16.906 14.8435 16.7611 14.9035 16.6542 15.0103L14.8959 16.7686C14.7904 16.8742 14.6541 16.9434 14.5066 16.9663C14.3591 16.9893 14.2082 16.9647 14.0756 16.8961C12.6342 16.1508 11.1811 15.0656 9.87327 13.7578C8.56546 12.45 7.48265 10.9978 6.73546 9.55642C6.66685 9.42391 6.64217 9.27299 6.66501 9.12552C6.68785 8.97805 6.75701 8.84167 6.86249 8.73611L8.62124 6.97783C8.72804 6.87095 8.78803 6.72604 8.78803 6.57494C8.78803 6.42385 8.72804 6.27893 8.62124 6.17205L6.27281 3.82314C6.22 3.77003 6.15718 3.72793 6.08798 3.69928C6.01878 3.67064 5.94458 3.65602 5.86968 3.65627Z" fill="black"/>
<path d="M17.0977 12.6436C16.9112 12.6436 16.7323 12.5695 16.6005 12.4377C16.4686 12.3058 16.3945 12.127 16.3945 11.9405C16.3932 10.707 15.9026 9.52437 15.0304 8.65211C14.1582 7.77985 12.9757 7.28915 11.7422 7.28766C11.5557 7.28766 11.3769 7.21358 11.245 7.08172C11.1131 6.94986 11.0391 6.77101 11.0391 6.58453C11.0391 6.39805 11.1131 6.21921 11.245 6.08735C11.3769 5.95549 11.5557 5.88141 11.7422 5.88141C15.083 5.88141 17.8008 8.60016 17.8008 11.9405C17.8008 12.127 17.7267 12.3058 17.5948 12.4377C17.463 12.5695 17.2841 12.6436 17.0977 12.6436Z" fill="black"/>
<path d="M20.0695 12.6436C19.883 12.6436 19.7042 12.5695 19.5723 12.4377C19.4405 12.3058 19.3664 12.127 19.3664 11.9405C19.3664 7.73627 15.9445 4.3158 11.7422 4.3158C11.5557 4.3158 11.3769 4.24172 11.245 4.10986C11.1131 3.97799 11.0391 3.79915 11.0391 3.61267C11.0391 3.42619 11.1131 3.24735 11.245 3.11549C11.3769 2.98363 11.5557 2.90955 11.7422 2.90955C16.7217 2.90955 20.7727 6.96095 20.7727 11.9405C20.7727 12.127 20.6986 12.3058 20.5667 12.4377C20.4349 12.5695 20.256 12.6436 20.0695 12.6436Z" fill="black"/>
</svg>
