<svg width="15" height="20" viewBox="0 0 15 20" fill="none" xmlns="http://www.w3.org/2000/svg">
<path d="M14.2409 7.33195C14.2129 3.50846 11.0492 0.400146 7.15755 0.400146C3.26592 0.400146 0.0742188 3.50846 0.0742188 7.33195V12.6408V12.6683C0.0742188 16.4918 3.26592 19.6001 7.15755 19.6001C11.0492 19.6001 14.2409 16.4918 14.2409 12.6683V7.33195ZM11.9451 12.6408C11.9451 12.9709 12.2251 13.246 12.561 13.246H13.009C12.673 16.1618 10.1253 18.4173 7.15755 18.4173C3.93786 18.4173 1.3061 15.8317 1.3061 12.6683V12.6408V7.96462H1.75406C2.09003 7.96462 2.37 7.68954 2.37 7.35946C2.37 7.02937 2.09003 6.7543 1.75406 6.7543H1.3341C1.64207 3.86605 4.18983 1.61046 7.15755 1.61046C10.3773 1.61046 13.009 4.19613 13.009 7.35946V12.0632H12.533C12.2251 12.0632 11.9451 12.3107 11.9451 12.6408Z" fill="white"/>
<path d="M9.00508 5.21391C8.7251 5.43397 8.66911 5.81907 8.89309 6.09414C9.11707 6.36921 9.50903 6.42423 9.78901 6.20417C10.069 5.98411 10.125 5.59901 9.90099 5.32394C9.67702 5.04887 9.28505 4.99385 9.00508 5.21391Z" fill="white"/>
<path d="M5.92598 12.3931C5.646 12.6132 5.59001 12.9983 5.81399 13.2734C6.03797 13.5484 6.42993 13.6034 6.7099 13.3834C6.98988 13.1633 7.04587 12.7782 6.82189 12.5032C6.59791 12.2556 6.20595 12.2006 5.92598 12.3931Z" fill="white"/>
</svg>
