<svg width="16" height="20" viewBox="0 0 16 20" fill="none" xmlns="http://www.w3.org/2000/svg">
<path d="M12.7991 4.38942C12.5586 4.38942 12.318 4.4409 12.0775 4.51811C12.1496 4.26074 12.1978 4.00336 12.1978 3.74599C12.1978 1.89291 10.8027 0.400146 9.0708 0.400146C7.33894 0.400146 5.94384 1.89291 5.94384 3.74599C5.94384 4.00336 5.99195 4.26074 6.06411 4.51811C5.82357 4.4409 5.58304 4.38942 5.3425 4.38942C3.61065 4.38942 2.21554 5.88218 2.21554 7.73527C2.21554 9.58835 3.61065 11.0811 5.3425 11.0811C5.58304 11.0811 5.84763 11.0296 6.06411 10.9524C5.99195 11.2098 5.94384 11.4672 5.94384 11.7245C5.94384 13.3975 7.09841 14.7873 8.58973 15.0189V18.5964C8.0846 18.5449 7.57948 18.2875 7.09841 17.85C6.54518 17.3353 6.13627 16.6404 5.75141 15.9712C5.87168 15.7396 5.94384 15.2763 5.7033 14.2468C5.55898 13.6034 5.29439 12.7798 4.9817 12.368C4.33225 11.5444 3.20174 11.4414 2.43203 12.1363C1.99906 12.5224 1.75853 13.1144 1.78258 13.6806C1.39772 13.8865 1.06098 14.2725 0.916655 14.7358C0.700173 15.3792 0.844494 16.0741 1.2053 16.5632C1.15719 16.6661 1.10908 16.7948 1.08503 16.9235C0.964762 17.4125 1.01287 17.953 1.27746 18.3905C1.61421 19.0082 2.21554 19.3428 2.84094 19.3428C3.15363 19.3428 3.46633 19.2656 3.73092 19.0854C4.26009 18.7508 4.83738 17.85 5.00575 17.5669C5.12602 17.3867 5.22223 17.2066 5.29439 17.0522C5.63114 17.5926 6.016 18.1331 6.47302 18.5964C7.14652 19.2398 7.96434 19.6001 8.73405 19.6001C8.83026 19.6001 8.92648 19.6001 9.02269 19.5744C9.09485 19.5744 9.16701 19.5229 9.23917 19.4972C9.40755 19.42 9.55187 19.2398 9.55187 19.0082V15.0189C11.0432 14.7615 12.1978 13.3975 12.1978 11.7245C12.1978 11.4414 12.1496 11.1841 12.0775 10.9524C12.318 11.0296 12.5586 11.0811 12.7991 11.0811C14.5309 11.0811 15.9261 9.58835 15.9261 7.73527C15.9261 5.88218 14.5309 4.38942 12.7991 4.38942ZM3.5866 12.754C3.82713 12.754 4.06767 12.857 4.23604 13.0886C4.47658 13.3975 4.74116 14.324 4.86143 14.9674C4.81332 14.916 4.78927 14.8902 4.74116 14.8388C4.3082 14.3755 3.68281 13.8093 3.22579 13.6291C3.08147 13.5776 2.9131 13.5519 2.76878 13.5262C2.79283 13.3203 2.88904 13.1144 3.05742 12.9857C3.20174 12.8055 3.39417 12.754 3.5866 12.754ZM1.83069 15.1219C1.95096 14.7615 2.28771 14.5299 2.62445 14.5299C2.72067 14.5299 2.81688 14.5556 2.9131 14.5814C3.34606 14.7358 4.21199 15.6366 4.54874 16.1256C3.99551 16.28 2.76878 16.4345 2.35987 16.28C2.14338 16.2028 1.97501 16.0484 1.8788 15.8168C1.75853 15.5851 1.75853 15.3535 1.83069 15.1219ZM3.24985 18.2618C2.84094 18.5192 2.33581 18.3648 2.09528 17.9272C1.97501 17.7213 1.95096 17.464 2.02312 17.2323C2.26365 17.3353 2.6004 17.361 2.93715 17.361C3.37011 17.361 3.77902 17.3095 3.9474 17.2838C3.99551 17.2838 4.01956 17.2581 4.06767 17.2581C3.77902 17.6956 3.46633 18.1331 3.24985 18.2618ZM9.0708 1.42964C10.2735 1.42964 11.2356 2.45913 11.2356 3.74599C11.2356 4.56958 10.514 5.39318 9.7443 5.80497C9.7443 5.80497 9.7443 5.80497 9.72024 5.80497C9.67214 5.77924 9.62403 5.7535 9.57592 5.7535C9.55187 5.7535 9.55187 5.72776 9.52781 5.72776C9.47971 5.70202 9.4316 5.70202 9.38349 5.67629C9.35944 5.67629 9.35944 5.67629 9.33539 5.65055C9.28728 5.65055 9.23917 5.62481 9.19106 5.62481C9.16701 5.62481 9.16701 5.62481 9.14296 5.62481C9.0708 5.62481 8.99864 5.62481 8.95053 5.62481C8.85432 5.62481 8.7581 5.62481 8.66189 5.65055C8.63783 5.65055 8.63783 5.65055 8.61378 5.65055C8.51757 5.67629 8.42135 5.70202 8.34919 5.72776C7.62759 5.26449 6.90598 4.49237 6.90598 3.72025C6.90598 2.45913 7.89217 1.42964 9.0708 1.42964ZM9.91267 7.68379C9.91267 8.25001 9.47971 8.71328 8.95053 8.71328C8.42135 8.71328 7.98839 8.25001 7.98839 7.68379C7.98839 7.11757 8.42135 6.6543 8.95053 6.6543C9.47971 6.6543 9.91267 7.11757 9.91267 7.68379ZM5.3425 10.0516C4.13983 10.0516 3.17769 9.02213 3.17769 7.73527C3.17769 6.4484 4.13983 5.41891 5.3425 5.41891C6.06411 5.41891 6.78571 6.11382 7.19462 6.8602C7.09841 7.11757 7.02625 7.37495 7.02625 7.68379C7.02625 7.761 7.02625 7.83822 7.02625 7.88969V7.91543C7.02625 7.9669 7.0503 8.04412 7.0503 8.09559C7.0503 8.12133 7.0503 8.12133 7.0503 8.14706C7.07436 8.19854 7.07436 8.25001 7.09841 8.30149C7.09841 8.32723 7.09841 8.32722 7.12246 8.35296C7.14652 8.40444 7.14652 8.45591 7.17057 8.50739C6.83382 9.20229 6.11221 10.0516 5.3425 10.0516ZM9.0708 14.0409C7.86812 14.0409 6.90598 13.0114 6.90598 11.7245C6.90598 10.8495 7.79596 10.0516 8.44541 9.66556H8.46946C8.56567 9.6913 8.63783 9.71704 8.73405 9.71704C8.80621 9.71704 8.87837 9.71704 8.95053 9.71704C8.97458 9.71704 8.99864 9.71704 9.02269 9.71704C9.04674 9.71704 9.04674 9.71704 9.0708 9.71704C9.26323 9.71704 9.4316 9.66556 9.62403 9.58835H9.64808C10.3456 9.94867 11.2356 10.798 11.2356 11.7245C11.2356 13.0114 10.2735 14.0409 9.0708 14.0409ZM12.7991 10.0516C11.9572 10.0516 11.1394 9.02213 10.8027 8.25001C10.8027 8.25001 10.8027 8.22428 10.8027 8.19854C10.8267 8.12133 10.8267 8.06985 10.8508 7.99264C10.8508 7.9669 10.8508 7.94117 10.8508 7.91543C10.8508 7.83822 10.8748 7.73527 10.8748 7.65806C10.8748 7.58084 10.8748 7.4779 10.8508 7.40068C10.8508 7.37495 10.8508 7.34921 10.8508 7.32347C10.8508 7.24626 10.8267 7.19479 10.8027 7.11757V7.09184C11.1394 6.34546 11.9332 5.36744 12.7991 5.36744C14.0018 5.36744 14.9639 6.39693 14.9639 7.68379C14.9639 8.97066 14.0018 10.0516 12.7991 10.0516Z" fill="white"/>
</svg>
