<svg width="10" height="29" viewBox="0 0 10 29" fill="none" xmlns="http://www.w3.org/2000/svg">
<g clip-path="url(#clip0_40_204)">
<path d="M5.04811 12.9574H4.98353C3.82114 12.9574 2.88477 11.901 2.88477 10.5895V8.29443C2.88477 6.98297 3.82114 5.92651 4.98353 5.92651H5.04811C6.2105 5.92651 7.14687 6.98297 7.14687 8.29443V10.5895C7.11459 11.901 6.2105 12.9574 5.04811 12.9574ZM4.95124 7.45655C4.4992 7.45655 4.14403 7.85728 4.14403 8.36729V10.6623C4.14403 11.1724 4.4992 11.5731 4.95124 11.5731H5.01582C5.46786 11.5731 5.82304 11.1724 5.82304 10.6623V8.36729C5.82304 7.85728 5.46786 7.45655 5.01582 7.45655H4.95124Z" fill="white"/>
<path d="M5.04811 23.8864H4.98353C3.82114 23.8864 2.88477 22.8299 2.88477 21.5184V19.2234C2.88477 17.9119 3.82114 16.8555 4.98353 16.8555H5.04811C6.2105 16.8555 7.14687 17.9119 7.14687 19.2234V21.5184C7.11459 22.8299 6.2105 23.8864 5.04811 23.8864ZM4.95124 18.3855C4.4992 18.3855 4.14403 18.7862 4.14403 19.2962V21.5913C4.14403 22.1013 4.4992 22.502 4.95124 22.502H5.01582C5.46786 22.502 5.82304 22.1013 5.82304 21.5913V19.2962C5.82304 18.7862 5.46786 18.3855 5.01582 18.3855H4.95124Z" fill="white"/>
<path d="M5.01633 27.1601C2.56238 27.1601 0.592773 25.1398 0.592773 22.6227V17.7542C0.592773 16.7606 0.883372 15.8332 1.46457 15.0715C0.883372 14.2766 0.592773 13.3493 0.592773 12.3557V7.48715C0.592773 7.25532 0.625062 6.99036 0.657351 6.75853C0.786506 6.0299 1.0771 5.33439 1.49686 4.77136C1.69059 4.47329 1.9489 4.20833 2.20721 3.9765C2.49781 3.74466 2.78841 3.54595 3.079 3.41347C3.14358 3.38035 3.20816 3.34723 3.27274 3.31411C3.30502 3.28099 3.3696 3.28099 3.40189 3.24787C3.49876 3.18163 3.56333 3.14851 3.62791 3.08228C3.75707 2.98292 3.88622 2.81732 4.01538 2.65172C4.17682 2.41989 4.33826 2.18805 4.43513 1.95622C4.56428 1.62502 4.95175 1.45943 5.27464 1.62502C5.43608 1.69126 5.56523 1.82374 5.59752 1.98934L5.62981 2.02246L5.75897 2.18805C5.85583 2.32053 5.9527 2.41989 6.01728 2.55237C6.21101 2.81732 6.40474 3.01604 6.59847 3.14851C6.72763 3.28099 6.88907 3.38035 7.0828 3.47971C7.21196 3.57907 7.3734 3.6453 7.50256 3.74466C8.08375 4.1421 8.56808 4.70512 8.89097 5.33439C9.24615 5.99678 9.40759 6.72541 9.40759 7.45403V12.3226C9.40759 13.3162 9.11699 14.2435 8.5358 15.0052C9.0847 15.767 9.40759 16.7275 9.40759 17.6879V22.5565C9.40759 25.1398 7.43798 27.1601 5.01633 27.1601ZM5.04861 3.41347C5.04861 3.41347 5.04861 3.44659 5.04861 3.41347C4.85488 3.67842 4.66115 3.91026 4.46742 4.07586C4.33826 4.17521 4.2414 4.27457 4.11224 4.34081C4.01538 4.40705 3.91851 4.44017 3.82164 4.50641C3.78936 4.53953 3.75707 4.53953 3.69249 4.57265C3.46647 4.70512 3.20816 4.8376 3.01443 5.0032C2.82069 5.1688 2.65925 5.33439 2.49781 5.56623C2.20721 5.96366 1.98119 6.46045 1.91661 6.99036C1.88432 7.12284 1.88432 7.32156 1.88432 7.48715V12.3557C1.88432 13.1837 2.20721 13.9785 2.75612 14.5747C3.01443 14.8397 3.01443 15.2371 2.75612 15.502C2.20721 16.1313 1.88432 16.9262 1.88432 17.7542V22.6227C1.88432 24.378 3.27274 25.8353 5.01633 25.8353C6.75992 25.8353 8.14833 24.4111 8.14833 22.6227V17.7542C8.14833 16.9262 7.82544 16.1313 7.27654 15.5352C7.01823 15.2702 7.01823 14.8728 7.27654 14.6078C7.85773 14.0117 8.14833 13.2168 8.14833 12.3888V7.48715C8.14833 6.95724 8.01918 6.42733 7.79315 5.99678C7.56713 5.53311 7.21196 5.1688 6.82449 4.87072C6.72763 4.80448 6.59847 4.73824 6.46932 4.63889C6.2433 4.50641 6.01728 4.37393 5.79126 4.17521C5.53295 3.9765 5.30692 3.71154 5.04861 3.41347Z" fill="white"/>
</g>
<defs>
<clipPath id="clip0_40_204">
<rect width="8.81482" height="28.16" fill="white" transform="translate(0.592773 0.280029)"/>
</clipPath>
</defs>
</svg>
