<svg width="22" height="22" viewBox="0 0 22 22" fill="none" xmlns="http://www.w3.org/2000/svg">
<path d="M21.1126 10.6387C20.7386 9.95696 20.1633 9.44565 19.5016 9.16159C19.6167 9.04796 19.703 8.93434 19.7893 8.82071C20.1345 8.33781 20.3646 7.79809 20.4222 7.17316C20.4509 7.03113 20.3934 6.8891 20.2496 6.77547C19.7605 6.40619 19.2139 6.15054 18.6386 6.06532C18.466 6.06532 18.2934 6.03691 18.1207 6.03691C18.4084 5.35517 18.4372 4.5882 18.2358 3.82124C18.207 3.67921 18.092 3.56558 17.9481 3.53718C17.2002 3.33834 16.4234 3.36674 15.733 3.6224C15.733 3.48037 15.7043 3.33834 15.7043 3.1963C15.6179 2.59978 15.359 2.06006 14.9851 1.57716C14.8988 1.46353 14.7549 1.40672 14.5823 1.40672C13.9782 1.46353 13.4028 1.69078 12.9138 2.03165C12.7699 2.11687 12.6549 2.2305 12.5398 2.34412C12.2521 1.66238 11.7055 1.06585 11.0151 0.668162C10.8713 0.582943 10.7274 0.582943 10.5836 0.668162C9.92194 1.03744 9.40412 1.60556 9.08767 2.28731C8.9726 2.17369 8.85753 2.08847 8.74246 2.00325C8.25341 1.66238 7.70682 1.43513 7.07393 1.37831C6.93009 1.34991 6.78625 1.40672 6.67118 1.54875C6.2972 2.03165 6.03829 2.57137 5.95199 3.13949C5.92322 3.30993 5.92322 3.48037 5.92322 3.6224C5.23279 3.33834 4.45606 3.30993 3.67933 3.50877C3.5355 3.53718 3.42042 3.6508 3.39166 3.79283C3.19028 4.53139 3.21905 5.29836 3.47796 5.9801C3.33412 5.9801 3.19028 6.00851 3.04644 6.00851C2.44232 6.09373 1.89573 6.34938 1.40668 6.71866C1.29161 6.80388 1.23408 6.94591 1.23408 7.11635C1.29161 7.71287 1.52175 8.281 1.86697 8.7639C1.95327 8.90593 2.06834 9.01956 2.18341 9.13318C1.49299 9.41724 0.888863 9.95696 0.486114 10.6387C0.399811 10.7807 0.399811 10.9228 0.486114 11.0648C0.860095 11.7181 1.43545 12.2294 2.12588 12.5419C2.0108 12.6555 1.9245 12.7692 1.8382 12.8828C1.49299 13.3657 1.26284 13.9338 1.17654 14.5303C1.14777 14.6724 1.20531 14.8144 1.34915 14.928C1.8382 15.2973 2.38479 15.553 2.98891 15.6382C3.16151 15.6666 3.33412 15.6666 3.47796 15.6666C3.19028 16.3483 3.13275 17.1437 3.36289 17.9107C3.39166 18.0527 3.50673 18.1663 3.65057 18.1947C3.96701 18.2799 4.28346 18.3368 4.5999 18.3368C5.03142 18.3368 5.46294 18.2515 5.83692 18.1095C5.83692 18.2515 5.86568 18.422 5.86568 18.564C5.95199 19.1321 6.2109 19.7002 6.58488 20.1547C6.67118 20.2684 6.78625 20.3252 6.93009 20.3252C6.95886 20.3252 6.95886 20.3252 6.98763 20.3252C7.59175 20.2684 8.1671 20.0411 8.65615 19.7002C8.79999 19.615 8.91506 19.5014 9.03014 19.3878C9.31781 20.0695 9.83563 20.6377 10.5548 21.0353C10.6124 21.0637 10.6987 21.0921 10.7562 21.0921C10.8137 21.0921 10.9 21.0637 10.9576 21.0353C11.648 20.6377 12.1658 20.0979 12.4535 19.4162C12.5686 19.5298 12.6836 19.615 12.7987 19.7002C13.2878 20.0411 13.8631 20.2684 14.4672 20.3536C14.496 20.3536 14.496 20.3536 14.5248 20.3536C14.6686 20.3536 14.7837 20.2968 14.87 20.1832C15.244 19.7003 15.5029 19.1605 15.5892 18.564C15.6179 18.3936 15.6179 18.2231 15.6179 18.0811C16.0207 18.2515 16.481 18.3368 16.9125 18.3368C17.2289 18.3368 17.5454 18.3084 17.8618 18.1947C18.0057 18.1663 18.1207 18.0527 18.1495 17.9107C18.3509 17.1721 18.3221 16.4051 18.0632 15.7234C18.207 15.7234 18.3797 15.695 18.5235 15.695C19.0988 15.6098 19.6742 15.3541 20.1345 14.9848C20.2496 14.8996 20.3071 14.7576 20.3071 14.5872C20.2496 13.9906 20.0194 13.4225 19.6742 12.9396C19.5879 12.7976 19.4728 12.6839 19.3578 12.5703C20.0482 12.2863 20.6235 11.7749 21.0263 11.0648C21.1701 10.9512 21.1701 10.7807 21.1126 10.6387ZM17.8331 6.9175C18.0632 6.8891 18.2646 6.8891 18.4947 6.94591C18.8399 7.00272 19.2139 7.14475 19.5304 7.3436C19.4441 7.71287 19.3002 8.05375 19.0988 8.33781C18.955 8.50825 18.8112 8.67868 18.6386 8.82071C18.6098 8.84912 18.581 8.87752 18.5523 8.93434C18.4372 8.90593 18.2934 8.90593 18.1783 8.90593C17.6892 8.90593 17.2289 9.01956 16.7974 9.2184C16.6536 8.7639 16.481 8.33781 16.2508 7.94012C16.7111 7.76969 17.1139 7.51403 17.4591 7.17316C17.5454 7.08794 17.6029 7.00272 17.6892 6.9175C17.6892 6.9175 17.7468 6.9175 17.8331 6.9175ZM10.8137 16.0927C7.87943 16.0927 5.4917 13.735 5.4917 10.8375C5.4917 7.94012 7.87943 5.58242 10.8137 5.58242C13.748 5.58242 16.107 7.96853 16.107 10.866C16.107 13.7634 13.748 16.0927 10.8137 16.0927ZM17.4591 4.27574C17.6317 5.12792 17.3728 5.9517 16.7974 6.51982C16.5098 6.80388 16.1358 7.03113 15.7043 7.14475C15.359 6.71866 14.9851 6.32098 14.5535 6.00851C14.6686 5.61082 14.8988 5.24154 15.1864 4.92908C15.7618 4.36096 16.5961 4.13371 17.4591 4.27574ZM12.9426 3.1963C13.0864 3.02587 13.259 2.85543 13.4316 2.74181C13.7193 2.51456 14.0933 2.37253 14.4385 2.28731C14.6398 2.59978 14.7837 2.94065 14.8412 3.30993C14.87 3.53718 14.87 3.76443 14.8412 3.99168C14.8412 4.04849 14.8412 4.07689 14.8412 4.1053C14.7549 4.19052 14.6398 4.24733 14.5535 4.33255C14.2083 4.67342 13.9494 5.07111 13.7768 5.52561C13.3741 5.29836 12.9425 5.12792 12.4823 4.98589C12.6836 4.5598 12.7699 4.1053 12.7699 3.6508C12.7699 3.53718 12.7699 3.42355 12.7412 3.30993C12.8275 3.28152 12.885 3.25312 12.9426 3.1963ZM10.8137 1.57716C11.5329 2.06006 11.9357 2.82703 11.9357 3.67921C11.9357 4.1053 11.8206 4.47458 11.6192 4.84386C11.3603 4.81545 11.0726 4.78705 10.785 4.78705C10.4973 4.78705 10.2384 4.81545 9.9507 4.84386C9.74933 4.47458 9.63426 4.07689 9.63426 3.67921C9.66303 2.82703 10.0945 2.06006 10.8137 1.57716ZM6.81502 3.93486C6.78625 3.70761 6.78625 3.48037 6.84379 3.28152C6.90132 2.94065 7.04516 2.57137 7.24654 2.2589C7.62052 2.34412 7.96573 2.48615 8.25341 2.68499C8.42601 2.82703 8.59862 2.96906 8.74246 3.13949C8.77123 3.1963 8.79999 3.22471 8.82876 3.25312C8.79999 3.39515 8.79999 3.53718 8.79999 3.6508C8.79999 4.1053 8.91506 4.5882 9.08767 4.98589C8.62739 5.12792 8.19587 5.29836 7.79312 5.52561C7.62052 5.07111 7.36161 4.67342 7.01639 4.33255C6.93009 4.24733 6.84379 4.19052 6.75748 4.1053C6.81502 4.07689 6.81502 3.99168 6.81502 3.93486ZM4.16839 4.27574C5.03142 4.1053 5.86568 4.36096 6.44104 4.92908C6.72872 5.21314 6.95886 5.58242 7.07393 6.00851C6.64241 6.34938 6.23966 6.71866 5.92322 7.14475C5.52047 7.03113 5.14649 6.80388 4.83004 6.51982C4.22592 5.9517 3.99578 5.12792 4.16839 4.27574ZM3.04644 8.7639C2.87384 8.62187 2.70123 8.45143 2.58616 8.281C2.35602 7.99694 2.21218 7.62766 2.12588 7.28678C2.44232 7.08794 2.78753 6.94591 3.16151 6.8891C3.39166 6.86069 3.6218 6.86069 3.85194 6.8891C3.90948 6.8891 3.93824 6.8891 3.99578 6.8891C4.08208 6.97432 4.13962 7.08794 4.22592 7.17316C4.57113 7.51403 4.97388 7.76969 5.43417 7.94012C5.20402 8.33781 5.03142 8.7639 4.88758 9.2184C4.45606 9.01956 3.99578 8.93434 3.5355 8.93434C3.42042 8.93434 3.30535 8.93434 3.19028 8.96274C3.13275 8.84912 3.10398 8.79231 3.04644 8.7639ZM1.40668 10.866C1.89573 10.1558 2.67246 9.72971 3.50673 9.72971C3.93824 9.72971 4.31222 9.84333 4.68621 10.0422C4.65744 10.2978 4.62867 10.5819 4.62867 10.866C4.62867 11.15 4.65744 11.4057 4.68621 11.6897C4.31222 11.8886 3.93824 12.0022 3.50673 12.0022C2.67246 11.9738 1.89573 11.5477 1.40668 10.866ZM3.82317 14.786C3.59303 14.8144 3.36289 14.8144 3.13275 14.7576C2.75877 14.7008 2.41355 14.5587 2.09711 14.3599C2.18341 13.9906 2.32725 13.6497 2.55739 13.3657C2.70123 13.1953 2.84507 13.0248 3.01768 12.8828C3.04644 12.8544 3.07521 12.826 3.10398 12.7976C3.24782 12.826 3.36289 12.826 3.50673 12.826C3.96701 12.826 4.45606 12.7123 4.85881 12.5419C5.00265 12.9964 5.17526 13.4225 5.37663 13.8202C4.94512 13.9906 4.54237 14.2463 4.19715 14.5587C4.11085 14.644 4.02455 14.7292 3.96701 14.8144C3.93824 14.786 3.88071 14.786 3.82317 14.786ZM4.13962 17.4278C3.99578 16.604 4.25469 15.7518 4.83004 15.1553C5.11772 14.8712 5.4917 14.6724 5.89445 14.5587C6.23966 14.9848 6.61364 15.3825 7.07393 15.7234C6.95886 16.1211 6.75748 16.462 6.46981 16.7744C5.86568 17.3141 5.00265 17.5698 4.13962 17.4278ZM8.68492 18.5356C8.54108 18.706 8.39724 18.8481 8.19587 18.9901C7.90819 19.1889 7.56298 19.331 7.189 19.4162C6.98762 19.1037 6.84379 18.7628 6.78625 18.3936C6.75748 18.1663 6.75748 17.9675 6.75748 17.7402C6.75748 17.6834 6.75748 17.655 6.75748 17.5982C6.87255 17.513 6.95886 17.4278 7.07393 17.3425C7.41914 17.0017 7.64928 16.6324 7.82189 16.1779C8.22464 16.4051 8.65615 16.5756 9.11644 16.7176C8.91506 17.1437 8.79999 17.6266 8.79999 18.0811C8.79999 18.1947 8.79999 18.3084 8.82876 18.422C8.77123 18.4504 8.71369 18.5072 8.68492 18.5356ZM10.8137 20.1547C10.0945 19.6718 9.66303 18.9049 9.66303 18.0811C9.66303 17.655 9.7781 17.2573 9.97947 16.888C10.2384 16.9165 10.5261 16.9449 10.785 16.9449C11.0439 16.9449 11.3316 16.9165 11.5905 16.888C11.7918 17.2573 11.9069 17.655 11.9069 18.0811C11.9357 18.9049 11.5329 19.6718 10.8137 20.1547ZM14.7837 17.7686C14.8125 17.9959 14.8125 18.2231 14.7549 18.4504C14.6974 18.8197 14.5535 19.1605 14.3522 19.473C13.9782 19.3878 13.633 19.2458 13.3453 19.0185C13.1727 18.8765 13.0001 18.7344 12.8562 18.564C12.8275 18.5356 12.7987 18.5072 12.7699 18.4788C12.7699 18.3652 12.7987 18.2515 12.7987 18.1095C12.7987 17.6266 12.6836 17.1721 12.4823 16.746C12.9425 16.604 13.3741 16.4335 13.7768 16.2063C13.9494 16.6324 14.2083 17.0301 14.5248 17.3709C14.6111 17.4562 14.6974 17.5414 14.7837 17.5982C14.8125 17.6266 14.7837 17.7118 14.7837 17.7686ZM17.4591 17.4278C16.6248 17.5698 15.7618 17.3141 15.1577 16.746C14.87 16.462 14.6686 16.0927 14.5535 15.695C14.9851 15.3541 15.3878 14.9848 15.7043 14.5587C16.107 14.6724 16.4522 14.8712 16.7687 15.1553C17.3728 15.7518 17.6029 16.604 17.4591 17.4278ZM18.581 12.968C18.7536 13.11 18.8975 13.2805 19.0413 13.4509C19.2427 13.735 19.3865 14.0758 19.4728 14.4451C19.1564 14.644 18.8112 14.786 18.4372 14.8428C18.207 14.8712 18.0057 14.8712 17.7755 14.8712C17.718 14.8712 17.6892 14.8712 17.6317 14.8712C17.5454 14.7576 17.4591 14.6724 17.3728 14.5587C17.0276 14.2179 16.6248 13.9622 16.1933 13.8202C16.4234 13.4225 16.5961 12.9964 16.7399 12.5419C17.1714 12.7408 17.6605 12.8544 18.1207 12.8544C18.2358 12.8544 18.3509 12.8544 18.466 12.826C18.4947 12.8544 18.5523 12.9112 18.581 12.968ZM18.1207 11.9738C17.6892 11.9738 17.2865 11.8602 16.9125 11.6613C16.9413 11.4057 16.97 11.1216 16.97 10.866C16.97 10.5819 16.9413 10.3262 16.9125 10.0706C17.2865 9.87174 17.6892 9.75811 18.1207 9.75811C18.955 9.75811 19.7317 10.1842 20.2208 10.866C19.7317 11.5761 18.955 11.9738 18.1207 11.9738Z" fill="white"/>
<path d="M8.05208 9.7297C8.33976 9.50245 8.39729 9.10476 8.16715 8.8207C7.93701 8.53664 7.53426 8.47983 7.24658 8.70708C6.9589 8.93433 6.90137 9.33201 7.13151 9.61607C7.36165 9.90013 7.7644 9.95695 8.05208 9.7297Z" fill="white"/>
<path d="M7.41912 12.1158C7.13144 12.3431 7.0739 12.7407 7.30405 13.0248C7.53419 13.3089 7.93694 13.3657 8.22462 13.1384C8.51229 12.9112 8.56983 12.5135 8.33969 12.2294C8.10954 11.9454 7.67803 11.917 7.41912 12.1158Z" fill="white"/>
<path d="M10.7273 13.3089C10.4396 13.5362 10.3821 13.9339 10.6122 14.2179C10.8424 14.502 11.2451 14.5588 11.5328 14.3316C11.8205 14.1043 11.878 13.7066 11.6479 13.4226C11.4177 13.1385 10.9862 13.1101 10.7273 13.3089Z" fill="white"/>
<path d="M10.7273 10.1274C10.4396 10.3546 10.3821 10.7523 10.6122 11.0364C10.8424 11.3204 11.2451 11.3773 11.5328 11.15C11.8205 10.9228 11.878 10.5251 11.6479 10.241C11.4177 9.95694 10.9862 9.92854 10.7273 10.1274Z" fill="white"/>
<path d="M13.4893 11.2637C13.2016 11.4909 13.1441 11.8886 13.3742 12.1727C13.6043 12.4567 14.0071 12.5135 14.2948 12.2863C14.5824 12.059 14.64 11.6614 14.4098 11.3773C14.1797 11.0932 13.7769 11.0364 13.4893 11.2637Z" fill="white"/>
<path d="M13.8919 9.30364C14.1796 9.07639 14.2371 8.67871 14.007 8.39465C13.7768 8.11059 13.3741 8.05378 13.0864 8.28102C12.7987 8.50827 12.7412 8.90596 12.9713 9.19002C13.2015 9.47408 13.6042 9.53089 13.8919 9.30364Z" fill="white"/>
<path d="M11.4181 7.76965C11.7057 7.54241 11.7633 7.14472 11.5331 6.86066C11.303 6.5766 10.9002 6.51979 10.6126 6.74704C10.3249 6.97429 10.2673 7.37197 10.4975 7.65603C10.7276 7.91169 11.1304 7.9685 11.4181 7.76965Z" fill="white"/>
</svg>
