<svg width="170" height="170" viewBox="0 0 170 170" fill="none" xmlns="http://www.w3.org/2000/svg">
<rect x="85" y="0.464466" width="119.551" height="119.551" rx="6.5" transform="rotate(45 85 0.464466)" stroke="#E18A3A" stroke-width="5"/>
<path d="M108.766 54.0001C107.62 54.0001 106.699 54.9215 106.699 56.0666V71.5664C106.699 72.7115 107.62 73.6329 108.766 73.6329H113.933C115.076 73.6329 115.999 72.7115 115.999 71.5664V56.0666C115.999 54.9215 115.076 54.0001 113.933 54.0001H108.766ZM88.6941 54.2985C84.0309 54.5268 64.2013 69.3343 64.2013 69.3343C62.4923 70.3257 61.9093 72.5059 62.8979 74.2223C63.5146 75.2955 64.5933 75.9241 65.7339 76.0041C66.4151 76.0523 67.1218 75.9013 67.7639 75.5302L78.9821 68.965C79.7115 67.4606 81.1868 66.3974 82.9304 66.3974H93.9375C95.3173 66.3974 95.3173 68.4657 93.9375 68.4657H82.9304C81.6243 68.4657 80.5456 69.5717 80.5456 71.0516C80.5456 72.5305 81.6243 73.6283 82.9304 73.6283H84.9495C85.307 73.1872 85.7326 72.6651 85.7326 72.6651C86.2793 72.0239 87.1124 71.5673 88.0892 71.5673C89.0915 71.5673 89.911 72.0084 90.4686 72.6733C90.4995 72.707 90.9079 73.2127 91.2453 73.6283H98.6452L103.165 71.6664C103.3 71.6018 103.449 71.5673 103.599 71.5655H104.632V57.099H100.889C99.0136 57.099 92.4441 54.2975 88.6932 54.2975L88.6941 54.2985ZM88.0919 73.6374C87.7682 73.6374 87.4953 73.782 87.3061 74.0031C87.3061 74.0031 85.5598 76.0605 83.8062 78.6027C82.9276 79.8733 82.0463 81.2622 81.3651 82.6147C80.6866 83.9663 80.1736 85.2543 80.1736 86.5058C80.1736 90.8098 83.7189 94.2998 88.1001 94.2998C92.4813 94.2998 96.024 90.8098 96.024 86.5058C96.024 85.2543 95.5146 83.9663 94.8361 82.6147C94.1549 81.2622 93.2736 79.8733 92.3949 78.6027C90.6377 76.0605 88.8896 74.0031 88.8896 74.0031C88.6868 73.7611 88.4167 73.6374 88.0929 73.6374H88.0919ZM73.6322 75.7003C73.3257 75.7021 73.0356 75.8431 72.8409 76.0814C72.8409 76.0814 72.0806 77.0128 71.3147 78.1707C70.9318 78.7491 70.5462 79.3885 70.2388 80.0252C69.9323 80.6628 69.684 81.2741 69.684 81.9926C69.684 84.1974 71.4266 86.0356 73.6404 86.0356C75.8569 86.0356 77.6078 84.1974 77.6078 81.9926C77.6078 81.2741 77.3486 80.6619 77.0448 80.0252C76.7383 79.3885 76.349 78.7491 75.9688 78.1707C75.203 77.0137 74.4426 76.0814 74.4426 76.0814C74.2453 75.8386 73.9469 75.6976 73.6313 75.7003H73.6322ZM101.76 81.2522C101.76 81.2522 101 82.1863 100.234 83.3433C99.854 83.9218 99.4656 84.553 99.1582 85.1897C98.8544 85.8264 98.6034 86.4467 98.6034 87.1652C98.6034 89.3691 100.355 91.2 102.565 91.2C104.775 91.2 106.53 89.37 106.53 87.1652C106.53 86.4467 106.268 85.8264 105.962 85.1897C105.658 84.553 105.272 83.9218 104.888 83.3433C104.125 82.1863 103.365 81.2486 103.365 81.2486C103.224 81.0785 102.974 80.8693 102.545 80.8693C102.12 80.8693 101.847 81.1422 101.759 81.2531L101.76 81.2522ZM91.0879 85.0187C91.6628 85.0132 92.1266 85.4835 92.1266 86.062C92.1266 88.3313 90.3276 90.1668 88.1001 90.1668C86.7204 90.1668 86.7204 88.0985 88.1001 88.0985C89.1816 88.0985 90.0629 87.1907 90.0602 86.062C90.0574 85.4917 90.5131 85.0242 91.0879 85.0187ZM104.266 93.996C103.585 93.9478 102.878 94.0988 102.236 94.4708L91.0179 101.036C90.2885 102.54 88.8132 103.604 87.0696 103.604H76.0625C74.6827 103.604 74.6827 101.534 76.0625 101.534H87.0696C88.3766 101.534 89.4544 100.428 89.4544 98.9495C89.4544 97.4696 88.3757 96.3718 87.0696 96.3718H71.3539L66.8344 98.3337C66.6989 98.3983 66.5497 98.4328 66.4005 98.4346H65.3673V112.901H69.11C70.9855 112.901 77.555 115.703 81.3059 115.703C85.9691 115.474 105.799 100.667 105.799 100.667C107.508 99.6753 108.091 97.4951 107.102 95.7787C106.485 94.7055 105.407 94.0761 104.266 93.9969V93.996ZM56.0665 96.3672C54.9232 96.3672 54 97.2886 54 98.4337V113.933C54 115.079 54.9232 116 56.0665 116H61.2335C62.3795 116 63.3 115.079 63.3 113.933V98.4337C63.3 97.2886 62.3795 96.3672 61.2335 96.3672H56.0665Z" fill="#E18A3A"/>
</svg>
