<svg width="170" height="170" viewBox="0 0 170 170" fill="none" xmlns="http://www.w3.org/2000/svg">
<rect x="85" y="0.464466" width="119.551" height="119.551" rx="6.5" transform="rotate(45 85 0.464466)" stroke="#6A973A" stroke-width="5"/>
<g clip-path="url(#clip0_203_861)">
<path d="M84.2385 41.7634C84.0546 41.9596 83.9546 42.2199 83.9584 42.4878L83.9591 48.1627C83.663 48.5352 82.8562 49.574 81.9067 51.2181C80.7648 53.195 79.5726 55.7657 79.5733 58.3723C79.5741 60.7942 80.0954 62.6619 81.067 63.9801C81.8112 64.9899 82.8439 65.6318 83.9598 65.8761L83.9613 69.0406C82.6172 67.1912 80.622 65.8097 78.8863 64.8067C77.5178 64.0168 76.5171 63.5748 75.8867 63.3107L75.8836 58.0228C75.892 57.0832 74.7456 56.6191 74.0953 57.2969C73.9129 57.4946 73.8113 57.7533 73.8167 58.0228L73.8167 63.9061C73.7983 64.0206 73.5312 65.6861 73.5312 67.8919C73.5304 70.1749 73.7868 73.0036 75.0913 75.2606C76.3011 77.3558 77.6856 78.722 79.1847 79.3769C80.6861 80.0341 82.2935 79.8967 83.5957 79.1472C83.7224 79.0724 83.8422 78.9892 83.9621 78.9044L83.9628 85.2266C82.6194 83.3765 80.6227 81.9919 78.8847 80.9882C76.9086 79.8471 75.2126 79.209 75.2126 79.209C74.8134 79.0602 74.3623 79.1724 74.0769 79.4899C73.9463 79.6357 73.8593 79.8158 73.8273 80.0112C73.8273 80.0112 73.5303 81.7904 73.5296 84.0734C73.5311 86.3586 73.7852 89.185 75.0897 91.442C76.301 93.5388 77.6833 94.9027 79.1839 95.5591C80.6845 96.2155 82.2927 96.0789 83.5933 95.3278C83.7215 95.2546 83.8421 95.1691 83.9627 95.0851L83.9635 101.169C82.6209 99.3183 80.6242 97.9352 78.8869 96.9323C76.9101 95.7904 75.2148 95.1531 75.2148 95.1531C74.8141 95.0027 74.3638 95.1157 74.0783 95.4332C73.9478 95.579 73.8608 95.7591 73.8264 95.9522C73.8264 95.9522 73.5303 97.7337 73.531 100.017C73.531 102.3 73.7875 105.128 75.0904 107.385C76.3009 109.482 77.6832 110.846 79.1846 111.502C80.6852 112.158 82.2926 112.021 83.5932 111.27C83.7222 111.196 83.8428 111.11 83.9634 111.025L83.9626 127.48C83.9336 128.895 86.0715 128.894 86.0402 127.479L86.0395 111.028C86.1594 111.112 86.28 111.196 86.4074 111.27C87.7081 112.021 89.3155 112.159 90.8169 111.503C92.3175 110.847 93.7028 109.483 94.9142 107.386C96.2163 105.13 96.4713 102.3 96.4713 100.016C96.4713 97.7321 96.1729 95.9529 96.1729 95.9529C96.0652 95.311 95.3989 94.9255 94.7883 95.153C94.7883 95.153 93.0915 95.7903 91.1131 96.9322C89.8774 97.6459 88.5103 98.5519 87.341 99.6815C86.8655 100.142 86.4266 100.64 86.0388 101.176L86.0389 95.0866C86.1587 95.1714 86.2793 95.2553 86.406 95.3286C87.7066 96.0797 89.3141 96.217 90.8154 95.5598C92.316 94.9034 93.7014 93.5394 94.9127 91.4427C96.2149 89.1865 96.4698 86.3562 96.4706 84.0733C96.4706 81.7896 96.1722 80.0104 96.1722 80.0104C96.0646 79.3684 95.3982 78.983 94.7876 79.2105C94.7876 79.2105 93.0908 79.8478 91.1124 80.9897C89.8767 81.7033 88.5104 82.6101 87.3411 83.7398C86.8648 84.1993 86.4266 84.6984 86.0389 85.2343L86.0382 78.9059C86.158 78.9907 86.2794 79.0723 86.4084 79.1479C87.7082 79.8982 89.3164 80.0363 90.817 79.3799C92.3176 78.7235 93.703 77.3595 94.9143 75.2628C96.2157 73.0058 96.4714 70.1763 96.4722 67.8934C96.473 65.731 96.2188 64.1304 96.1898 63.9549L96.1898 58.0196C96.1975 57.0762 95.0457 56.6144 94.3977 57.2976C94.2129 57.4945 94.113 57.7548 94.116 58.0234L94.1175 63.3129C93.4878 63.5748 92.4864 64.0175 91.1148 64.809C89.8783 65.5219 88.512 66.4287 87.3427 67.5583C86.8671 68.0186 86.4267 68.5185 86.039 69.0543L86.0398 65.8799C87.1595 65.6349 88.1975 64.9937 88.9417 63.9808C89.9126 62.6619 90.4256 60.7949 90.4248 58.373C90.4271 55.7695 89.2311 53.1965 88.0892 51.2196C87.1313 49.5595 86.3184 48.51 86.0322 48.149L86.036 42.4893C86.0567 41.5375 84.8888 41.0673 84.2393 41.7642L84.2385 41.7634ZM76.9881 50.0336C76.9858 50.0358 76.982 50.0397 76.9797 50.0419C76.7958 50.2381 76.695 50.4992 76.6981 50.7678L76.6973 53.8736C76.6958 55.2612 78.7749 55.2612 78.7749 53.8736L78.7757 50.7678C78.7948 49.8221 77.6384 49.3466 76.9881 50.0336ZM91.1812 50.7609L91.1843 53.8796C91.1263 55.3207 93.3184 55.3146 93.2558 53.875L93.2543 50.767C93.2734 49.8213 92.1193 49.3481 91.4675 50.0365C91.282 50.2342 91.179 50.493 91.182 50.7616L91.1812 50.7609Z" fill="#6A973A"/>
</g>
<defs>
<clipPath id="clip0_203_861">
<rect width="62.2254" height="62.2254" fill="white" transform="translate(41 85) rotate(-45)"/>
</clipPath>
</defs>
</svg>
