<svg width="170" height="170" viewBox="0 0 170 170" fill="none" xmlns="http://www.w3.org/2000/svg">
<rect x="85" y="0.464466" width="119.551" height="119.551" rx="6.5" transform="rotate(45 85 0.464466)" stroke="#06B6E8" stroke-width="5"/>
<g clip-path="url(#clip0_203_862)">
<path d="M101.566 41.0003C101.196 41.0106 100.847 41.1795 100.611 41.4672L94.2152 49.1949C93.5096 50.035 94.1053 51.3249 95.1972 51.3215H97.7592V52.0737C97.7592 58.1566 94.6954 63.7201 88.8227 67.818C82.95 71.9159 74.2377 74.5196 63.2035 74.5196C62.3574 74.5196 61.9293 75.2262 61.9293 75.8197C61.9293 76.4133 62.3506 77.0993 63.2035 77.0993C70.0786 77.0993 80.4411 77.1381 89.2576 74.063C93.6659 72.5277 97.7207 70.2003 100.679 66.6298C103.638 63.0558 105.441 58.329 105.441 52.0737V51.3215H107.999C109.091 51.3249 109.687 50.035 108.981 49.1949L102.585 41.4672C102.334 41.1612 101.959 40.9889 101.566 41.0003ZM50.4137 60.346C48.2696 60.346 49.3524 62.1632 49.3524 64.2852V109.674L48.0193 111.485C47.8811 112.273 48.4803 112.995 49.2742 112.999L120.714 112.924C121.589 112.928 122.21 112.066 121.934 111.229L119.448 108.942C119.276 108.414 118.789 108.058 118.239 108.055C96.1701 108.026 73.5377 108.075 54.2533 108.055V102.899H55.5332C57.2401 102.899 57.2401 100.32 55.5332 100.32H54.2533V95.162H56.812C58.5189 95.162 58.5189 92.5834 56.812 92.5834H54.2533V87.4251H55.5332C57.2401 87.4251 57.2401 84.8465 55.5332 84.8465H54.2533V79.6882H56.812C58.5189 79.6882 58.5189 77.1096 56.812 77.1096H54.2533V71.9502H55.5332C57.2401 71.9502 57.2401 69.3704 55.5332 69.3704H54.2533V64.211C54.2533 62.0878 52.5589 60.3448 50.4148 60.3448L50.4137 60.346ZM109.411 63.0627C107.497 64.9917 106.768 67.3637 106.714 69.367V74.821C106.665 74.7719 106.63 74.7159 106.581 74.6669C104.259 72.3268 100.868 71.4057 97.6947 72.2663C97.2552 72.3896 96.9086 72.7378 96.792 73.1841C95.9447 76.3825 96.8565 79.7932 99.1762 82.1309C101.171 84.1422 103.956 85.0931 106.714 84.778V101.749C105.525 101.996 104.391 102.582 103.472 103.507L101.518 105.476H114.477L112.522 103.507C111.602 102.58 110.465 101.993 109.274 101.747V98.9642C112.034 99.2804 114.82 98.3284 116.816 96.3172C119.136 93.9783 120.047 90.5676 119.2 87.368C119.083 86.924 118.737 86.5758 118.297 86.4537C115.123 85.593 111.733 86.5142 109.411 88.8542C109.361 88.9044 109.321 88.9615 109.274 89.0129V73.1738C112.034 73.49 114.82 72.538 116.816 70.5279C119.137 68.1879 120.047 64.7749 119.2 61.5765C119.083 61.1336 118.737 60.7854 118.297 60.6633C117.505 60.4487 116.699 60.3437 115.898 60.3471C113.496 60.3505 111.152 61.3059 109.411 63.0638V63.0627ZM61.8658 85.1616C61.4264 85.2837 61.0775 85.6318 60.9608 86.0759C60.1136 89.2754 61.0277 92.6861 63.3473 95.025C65.3419 97.0363 68.1271 97.9894 70.885 97.6744V101.743C69.6958 101.987 68.5643 102.583 67.6457 103.508L65.6919 105.479H78.6482L76.6932 103.508C75.7724 102.58 74.6364 101.983 73.4448 101.74V94.2922C73.4448 91.362 72.4243 89.3051 70.7537 87.5621C69.0117 85.8065 66.6682 84.8499 64.2659 84.8442C63.4651 84.8431 62.6609 84.9458 61.867 85.1616H61.8658ZM79.7797 85.1638C79.3402 85.286 78.9936 85.6341 78.8781 86.0782C78.0309 89.2777 78.9427 92.6884 81.2623 95.0273C83.2592 97.0397 86.0455 97.994 88.8057 97.6767V101.747C87.613 101.993 86.477 102.579 85.5562 103.507L83.6023 105.476H96.5586L94.6037 103.507C93.6851 102.582 92.5536 101.996 91.3643 101.749V97.6767C94.1223 97.9917 96.9075 97.0374 98.9021 95.0273C101.222 92.6884 102.133 89.2777 101.286 86.0782C101.17 85.6341 100.823 85.286 100.384 85.1638C97.2088 84.3032 93.8188 85.2243 91.4969 87.5644C90.9407 88.1248 90.4718 88.7492 90.0822 89.4158C89.6926 88.7492 89.2236 88.1248 88.6675 87.5644C86.9255 85.8088 84.5821 84.8522 82.1798 84.8465C81.379 84.8454 80.5737 84.9481 79.7808 85.1638H79.7797Z" fill="#06B6E8"/>
</g>
<defs>
<clipPath id="clip0_203_862">
<rect width="74" height="72" fill="white" transform="translate(48 41)"/>
</clipPath>
</defs>
</svg>
